<svg id="Layer_1" data-name="Layer 1" xmlns="http://www.w3.org/2000/svg" viewBox="0 0 145.55 145.55"><defs><style>.cls-1{fill:none;stroke-width:3.86px;}.cls-1,.cls-2{stroke:#fff;stroke-miterlimit:10;}.cls-2,.cls-3{fill:#fff;}</style></defs><circle class="cls-1" cx="72.78" cy="72.78" r="70.85"/><path class="cls-2" d="M63.06,112.59c-2,0-3-.55-3-1.64q0-2.76,10.71-25.07a122.44,122.44,0,0,1-13.29-1.26q-6.73-1-13.67-2.65a13,13,0,0,1-5.54,1.89A10.31,10.31,0,0,1,35,83.23c-1.43-.67-2.14-1.38-2.14-2.14a3.46,3.46,0,0,1,2-3,7.66,7.66,0,0,1,3.91-1.2,5.69,5.69,0,0,1,.69.07c.3,0,.65.1,1.07.19Q49.58,70.38,63,60T94.31,35.48c1.17-1.18,2.66-2.62,4.47-4.35s3.88-3.63,6.24-5.73a1.3,1.3,0,0,1,.75-.13,3.48,3.48,0,0,1,2,.89,2.37,2.37,0,0,1,1.13,1.76q0,1.26-2.39,3.65c-.5.59-1,1.16-1.51,1.71s-1,1.11-1.64,1.7q-1.63,2-8.06,13.35-4.8,8.45-9.14,16.82T77.8,81.85A37.43,37.43,0,0,0,84,81.6c1.94-.26,3.78-.59,5.55-1q7.68-2,7.68-6.81V72.9c0-1.59.72-2.39,2.15-2.39s2,1.09,2,3.27q0,12.36-25.32,12.35-2,4.16-3.91,8.57t-3.65,9.07c-.26.93-.57,2-1,3.21s-.86,2.59-1.45,4.1C65.75,112.09,64.74,112.59,63.06,112.59Zm9.32-30.74Q85.12,54.76,95.82,39.51q-4,3.52-10.27,8.38t-14.68,11Q62.3,65.09,56,69.94T45.92,78.07A127.73,127.73,0,0,0,72.38,81.85Z"/><path class="cls-3" d="M32.77,31a18,18,0,0,0,1.94,5.58.26.26,0,0,1,0,.23L34,38.68a.39.39,0,0,1-.58.17,7.66,7.66,0,0,1-2.53-2.62c-2-3.45.19-7.41,2.4-10.15A.79.79,0,0,1,34.36,26a.78.78,0,0,1,.3.74A1.87,1.87,0,0,0,34.89,28l-1.4.07c1.56-3.05,4.9-4.86,8.17-5.36a.92.92,0,0,1,.63,1.7,2.6,2.6,0,0,0-1.14,1.14.83.83,0,0,1-.47.56L40,24.35a12.51,12.51,0,0,1,7.39-.61c1,.31,3.82,1.47,2.25,2.75-1.89,1.19-4.25,2.32-5.49,4.19l-.6-1.16c.8.27,2.28-.77,2.64.43a.83.83,0,0,1-.32.86c-1.37,1-3.21,2.06-4,3.53l-.55-.83A4.31,4.31,0,0,0,43,33.45a.62.62,0,0,1,.74.47.64.64,0,0,1-.15.55c-2.48,2.62-6.22,5.56-10,4.23l.24-.11a24.7,24.7,0,0,0-.54,3.21,18.8,18.8,0,0,1,.18-3.33.19.19,0,0,1,.24-.12c3.62.89,6.8-2.15,9-4.69l.64,1a5.36,5.36,0,0,1-2.26.17c-2.24-.87,3-4.72,3.89-5.35l.68,1.44a5.33,5.33,0,0,1-2.4.23A.81.81,0,0,1,42.58,30c1.37-2.45,3.85-3.67,6.09-5.11l-.12,1.5c-2.21-1.76-5.43-1.09-8-.28a.94.94,0,0,1-.72-1.72l-.47.56a4.1,4.1,0,0,1,2-2.17l.63,1.7c-2.85.46-5.59,1.78-7,4.35a.82.82,0,0,1-1.4.08,3.45,3.45,0,0,1-.47-2.42l1.4.61c-3.09,3.36-4.87,7.89-.64,11.11l-.59.16.91-1.78v.24A16.26,16.26,0,0,1,32.77,31Z"/><path class="cls-3" d="M36,28.59c.26,1.76.65,3.13,1,4.88a8.89,8.89,0,0,1-2.51,3.25A9.27,9.27,0,0,1,35,34.91a16.41,16.41,0,0,1,.81-1.69l-.07.41c-.39-1.57-.61-3.54.25-5Z"/><path class="cls-3" d="M38.09,28.23c.28.91.52,1.57.74,2.48a.54.54,0,0,1-.09.43,8.41,8.41,0,0,1-2.41,2.38,5.49,5.49,0,0,1,1.42-3.09l-.13.49a3.56,3.56,0,0,1,.47-2.69Z"/><path class="cls-3" d="M40.62,27.9a3.07,3.07,0,0,1-2.39,2.91,3.07,3.07,0,0,1,2.39-2.91Z"/><path class="cls-3" d="M37,32.49a4.32,4.32,0,0,1,3.83-1.44A3.09,3.09,0,0,1,37,32.49Z"/><path class="cls-3" d="M39.11,35.59a3.55,3.55,0,0,1-3.77-.44,2.8,2.8,0,0,1,3.77.44Z"/><path class="cls-3" d="M110.14,119.24a18.18,18.18,0,0,0-.8-5.85.3.3,0,0,1,0-.23l1.09-1.65a.4.4,0,0,1,.55-.11c3.08,2.74,2.91,7.12.2,10.07a20.23,20.23,0,0,1-2.55,2.52.79.79,0,0,1-1.11-.09.76.76,0,0,1-.14-.79,1.93,1.93,0,0,0,0-1.28l1.38.2a9.71,9.71,0,0,1-4.14,2.92,13.07,13.07,0,0,1-4.93.72.92.92,0,0,1-.9-.94,1,1,0,0,1,.62-.86,2.46,2.46,0,0,0,1.35-.89.81.81,0,0,1,.57-.45l.37,1.83c-3.22.44-7.22.22-9.45-2.56a.92.92,0,0,1,.42-1.45,30.31,30.31,0,0,0,5-2.08,4.3,4.3,0,0,0,1.19-.94l.36,1.26a4.29,4.29,0,0,0-1.66-.18.81.81,0,0,1-.36-1.55c1.55-.72,3.55-1.38,4.67-2.65l.37.92a4.33,4.33,0,0,0-1.72-.29.61.61,0,0,1-.63-.6.64.64,0,0,1,.25-.52c3-2.08,7.2-4.21,10.68-2.15l-.26.06a22.81,22.81,0,0,0,1.16-3,18.3,18.3,0,0,1-.84,3.23.18.18,0,0,1-.26.06c-3.36-1.58-7.08.77-9.71,2.83l-.42-1.12a5.21,5.21,0,0,1,2.24.28c2,1.33-3.89,4-4.87,4.47l-.38-1.54A5.45,5.45,0,0,1,100,117a.83.83,0,0,1,.36,1.26c-1.83,2.13-4.51,2.83-7,3.79l.42-1.45a5.59,5.59,0,0,0,3.45,1.83,15.07,15.07,0,0,0,4.35,0,.93.93,0,0,1,.35,1.83l.57-.45a4.11,4.11,0,0,1-2.37,1.74l-.28-1.8a12,12,0,0,0,4.28-.55,8.08,8.08,0,0,0,3.48-2.31.8.8,0,0,1,1.16-.1,3,3,0,0,1,.2,2.76l-1.25-.88c3.7-2.68,6.34-6.77,2.83-10.75l.62,0-1.25,1.57,0-.23a16.15,16.15,0,0,1,.2,6Z"/><path class="cls-3" d="M106.5,121c.1-1.78,0-3.2,0-5a8.86,8.86,0,0,1,3.11-2.69,10,10,0,0,1-.91,1.67,15,15,0,0,1-1.13,1.49l.15-.38A7,7,0,0,1,106.5,121Z"/><path class="cls-3" d="M104.36,120.93c-.09-1-.2-1.64-.23-2.58a.57.57,0,0,1,.17-.4,8.48,8.48,0,0,1,2.84-1.86,5.47,5.47,0,0,1-2,2.75l.21-.45a3.54,3.54,0,0,1-1,2.54Z"/><path class="cls-3" d="M101.82,120.75a3.07,3.07,0,0,1,2.92-2.38,3.06,3.06,0,0,1-2.92,2.38Z"/><path class="cls-3" d="M106.26,117a4.26,4.26,0,0,1-4,.65,3.11,3.11,0,0,1,4-.65Z"/><path class="cls-3" d="M104.82,113.51a3.54,3.54,0,0,1,3.61,1.19,2.82,2.82,0,0,1-3.61-1.19Z"/></svg>