<?xml version="1.0" encoding="utf-8"?>
<!-- Generator: Adobe Illustrator 26.0.1, SVG Export Plug-In . SVG Version: 6.00 Build 0)  -->
<svg version="1.1" id="Layer_1" xmlns="http://www.w3.org/2000/svg" xmlns:xlink="http://www.w3.org/1999/xlink" x="0px" y="0px"
	 viewBox="0 0 163.3 139.1" style="enable-background:new 0 0 163.3 139.1;" xml:space="preserve">
<style type="text/css">
	.st0{fill:#FFFFFF;}
</style>
<g>
	<path class="st0" d="M104,89.2c1.1,0.1,1.8-0.1,1.8-1C105.4,86.6,102.8,87.7,104,89.2z"/>
	<path class="st0" d="M57.1,89c-0.8,4.4,7.9,4.3,8.1,0.5c0.1-2-1-2.9-3.1-2.9C59.9,86.6,57.4,87.1,57.1,89z M64.2,89.7
		c-1,1.6-4.9,1.7-5.5-0.5C60.1,87.9,63.9,86.7,64.2,89.7z"/>
	<path class="st0" d="M27,81.9c2.6,4.9,6.2,10.2,10.7,12.3C34.2,90,31.9,84.6,27,81.9z"/>
	<path class="st0" d="M150.9,57.5c1.6,0.9,3.3-1,2.6-2.4C151.6,55,151.4,56.4,150.9,57.5z"/>
	<path class="st0" d="M156.6,46.3c-8.3-8.3-15.3-14.7-23.8-22c-1.8-1.5-8-7.7-10.7-7.9c-2.3-0.1-5.7,2.3-8.4,3.1
		c-9.7,3-18.3,5.1-26.5,8.6C77.2,21.7,69.5,12.9,60.7,5.1c-0.4,0.1-0.4,0.4-0.8,0.5c-6.4,1.1-12.3,2.7-17.8,4.7
		C33,23.8,25.7,38.6,17.8,52.8C15.1,57.7,13.1,63,10.5,68c-2.7,5.2-6.9,9.5-7.6,16c6.4,1.3,10.9-3,17-1.3c1.4,0.4,4,3.3,5.5,5
		c3.8,4.2,6,7.2,9.7,11.3c1.8,2,3.6,4.8,5.5,5.2c2.4,0.6,5.9,0,8.6-0.3c8.8-0.7,16.9-1.1,24.6-2.4c8.6,8.3,17.6,15.6,27.5,23.1
		c2.4,1.8,7.3,7,10.5,6.5c2.4-0.3,5.2-6.7,6.8-9.2c6.7-10,12.7-19.9,18.6-29.9c6-10.2,12.1-19.7,18.1-30.1c1-1.8,5.7-8.7,5.5-10.7
		C160.7,50,157.9,47.5,156.6,46.3z M122.8,19.5c0.3,0,0.5,0.1,0.5,0.3c4.8,3.9,9,8,13.6,12.3c1.3,1.2,3.7,2.6,3.4,5
		c-0.9,0.5-1.5-0.8-2.1-1.3c-5-4.5-11.4-9.6-16.5-14.1C122,20.8,122.6,20.4,122.8,19.5z M88,30.8c11.1-2.3,19.6-7.2,30.1-10
		c-0.9,1.8-3.4,2.2-5.2,2.9c-5.5,2-12.3,3.6-17.3,6.5c6.9-0.7,13.7-3.8,20.2-5.8c-1.2,2.8-4.2,5.3-6.8,8.1c-2.6,2.8-5.5,6.9-9.2,7.3
		c-5.9,0.7-8.7-4-14.9-4.2C85.6,33.8,87.2,32.7,88,30.8z M116.5,61.2c1.3,3,5.6,3.6,8.1,7.1c1.8,2.5,4.3,6.5,3.4,11
		c-0.3,1.4-2.2,3.5-2.9,5.2c-2.4,6-2.6,14.1-10.2,13.4c-2.4-0.2-6-2.1-8.4-3.4c-3-1.6-4.9-4.7-7.1-6c-2.4-1.4-6.3-2.2-6.3-5.5
		c0-1.9,2.1-3.2,2.4-5.8c0.3-3.3-1.2-5.4-1.6-8.1c5,1.7,1.5,10.4,3.4,14.9c1,2.3,3.6,1.9,5.8,3.1c-0.7-1.9-3.6-1.6-4.7-3.1
		c-0.6-6.2,0.6-14.2-3.1-17.3c2.7-4.2,5-8.7,7.9-12.8c3.3-1.8,7.6,0.2,11.3-0.5c-0.5,3.3-3.6,5.7-1.6,10c1.1,2.2,4,3.2,6,5.5
		c2,2.2,5.2,6.3,5.2,8.6c0,1.7-1.7,3.7-2.4,5.5c-1.8,4.7-0.7,10.2-4.7,11.8c-5.3,2.1-8.1-2.2-10.7-4.2c1.3,2.3,3.4,3.9,5.5,5.5
		c9,1.8,8.9-5.8,11-11.5c1.2-3.2,4-5.5,2.4-9.7c-0.8-2-3.5-5.6-4.7-7.1c-2.2-2.7-6.7-3.6-6.5-7.6c0.1-3,5.3-7.9,0.5-8.9
		c-1.2-0.3-2.2,0.8-3.7,0.8c-2.4,0-4.8-1.8-6.3-0.5c1.1-1.9,2-3.3,3.9-3.4c1.7-0.1,3.1,1.6,4.7,1.6c3.1-0.1,3.5-3.7,6.5-2.6
		c1.4,2.3-1.3,3.7-2.1,5.2C116.4,54.5,115.4,58.4,116.5,61.2z M36.6,54.4c0.6-1.5,1.4-2.8,2.1-4.2c4.8-2,8.8,0.2,13.6,1.8
		c0.5,0.2,3.3,2.5,3.7,2.9c1.8,2.3,3.1,6.7,3.4,10.5c0.1,1.8,0.3,4-1,5.5C58.8,57.4,48.9,47.5,36.6,54.4z M43.2,63.8
		c-6-1.1-6.6,5.4-13.1,4.5c1.7-3.4,3.1-7.2,4.7-10.7c5.5-2.4,11.7-5.5,16.8-1.6c4.4,3.4,4.4,10.2,5.5,17
		c-4.4,6.4-9.2,12.4-12.8,19.6c-0.4-5.6,3.7-11.4,4.5-17C49.4,70.6,47,64.5,43.2,63.8z M27.2,65.1c-2.5,1-7.1,2.3-7.6-0.8
		c-0.4-2.7,3.9-5.1,6.3-7.1c3.2-2.6,4.3-5.4,8.6-7.1C32.7,54.7,29.6,60.3,27.2,65.1z M56.6,53.3c-1.9-2.3-11.3-7.6-16.5-5
		c0.3-1,0.7-2.8,1.6-3.7c4.5-4.7,10.3,0,16,0.8c8.9,1.3,7.6-10.4,16.8-9.4c1.9,0.2,3.5,1.6,5.2,1.3C74,48,66.7,56.9,60.7,67.2
		C60,61.8,59.4,56.9,56.6,53.3z M64.7,71.9c4.6-3.4,6.5-8,13.1-8.4c4.4-0.3,9.8,1.1,13.1,2.9c-1.6,0.8-3.3-0.2-5-0.3
		c-5.2-0.3-11.7,1-15.2,3.4c-3.1,2.1-5.2,6.9-10,4.7C61.7,73,63.4,72.9,64.7,71.9z M77.5,62.2c-7.4,0.4-10.7,6.6-15.2,9.4
		c4.5-6.7,8.4-14.1,12.8-21.2c1.3-2.1,2.7-5.3,5.8-5.5c2.3,4,3.5,9.4,8.1,11.5c1.9,0.9,5.5,1.2,8.1,0c-1.1,2.7-3.6,6.2-5.5,8.9
		C87.5,63.4,82.6,61.9,77.5,62.2z M82,42.9c1,0,1.9,0,2.9,0c3.6,2.3,3.1,9.9,8.1,11c2.6,0.6,5-0.8,7.1-2.1c0.4,0.9-1.2,2.1-1.6,3.1
		c-2,0.5-3,1.2-5.2,1C86.1,55.6,84.7,48.2,82,42.9z M102.7,48.4c-2.7,1.6-5.1,3.4-9.7,3.1c-4.6-2.8-3.3-13.3-11.8-10.5
		c0.8-1.4,1.6-2.9,2.6-4.2c7.3-0.9,8.8,5.2,16,4.5c5.9-0.6,8-6.5,12.3-10C109.9,36.9,105.6,42.6,102.7,48.4z M80.1,36
		c-5.2-1.1-8.2-2.5-12,0.3c-3.1,2.3-4.6,7.4-8.4,7.9c-5.7,0.7-9.7-5.1-16.5-2.4c1.2-3.1,3-5.7,4.5-8.6c3.1-1.2,6.3,0.6,10.2,0.3
		c6.2-0.6,8.8-5.5,13.9-7.1c6.7-2.1,8.3,1.6,12.1,4.2C82.7,32.5,81.7,34.5,80.1,36z M65.2,14c0.4-0.3,0.7-0.3,1,0
		c3,3.8,6.7,6.9,10.5,10c-8.8-0.1-11.3,7.4-18.3,8.4c-3.2,0.5-6.5-1.2-10-0.5c0.4-1.8,1.6-2.8,2.1-4.5c7.4-0.9,9.8-6.8,13.4-11.5
		c3.2,2.8,6.2,5.9,10.2,7.9c-1.8-3.2-6-6.2-9.2-8.9C64.9,14.4,65.2,14.4,65.2,14z M60.7,8.8c1.2,1,2.4,2.2,3.4,3.4
		c-3.6,5.2-5.4,12.1-12.6,13.6C54.7,20.2,57.8,14.6,60.7,8.8z M44,11.9c3.8-1,7.6-2,11.5-2.9c-2.3,5.4-5.5,12.1-8.4,17.8
		c-3.1-1.4-4.2-4.7-7.1-6.3C41.2,17.5,43.1,15.2,44,11.9z M39.3,21.6c3.2,1.3,4.1,5,7.1,6.5c-0.4,1.5-1.3,2.6-1.8,3.9
		c-3.2-1.7-4-6-6.3-8.6C38.8,23,38.9,22.2,39.3,21.6z M6.3,81.1c2.1-3.1,8.9-1.4,13.1-2.4C15.3,79.8,10.4,80.1,6.3,81.1z M20.7,77.2
		c-3.9-0.5-8.5,0.3-12.3,0.8c1.4-5.5,8.3-6.8,14.4-4.7C22.1,74.6,21.3,75.8,20.7,77.2z M11.8,71.7c8-16,16.8-31.2,25.4-46.6
		c2.8,2,3.3,6.3,6.8,7.6c-1.1,2.6-2.4,4.6-3.7,7.1c-1,1.9-1.8,4.9-3.7,7.1c-1.4,1.6-4.5,2.6-6.3,3.9c-1.5,1.1-3.1,3.3-5,5
		c-2.2,1.9-7.8,4.5-6.8,9.2c0.6,2.9,4.2,3.1,7.6,2.4c-1,1.5-1.7,3.4-2.9,4.7C19.6,71.5,15.3,70,11.8,71.7z M23.6,79.8
		c1.2-1.8,2-4.1,3.4-5.8c2.4-0.7,3.5,0.2,5.5,0c4.8-0.5,6.8-6.9,10.5-1.3c-0.3,6-4.6,11.1-4.5,17.3c0.1,3.3,1.9,6.1,2.1,9.2
		C34.4,93.2,29.2,86.3,23.6,79.8z M32.5,73c1.3-1,2.7-1.8,3.9-2.9C36.1,71.1,34.4,72.9,32.5,73z M41.6,96.3
		c-2.2-5.6,0.1-11.1,1.3-16c0.6-2.6,1.8-5.7,1.6-7.6c-0.3-2.8-3.6-5.1-7.6-4.2c-2.8,0.7-4.7,5.3-8.9,3.4c0.8-2.7,3.3-1.7,5.8-2.4
		c3.3-0.9,5-4.2,8.1-4.2c3.7,0,6,5.5,5.8,9.2c-0.3,4.9-3.7,10.7-4.5,16.2C42.9,92.9,43.8,95.1,41.6,96.3z M67.3,81.9
		c4.3,1.9,5.4,7.2,9.2,9.4c-0.5,1.4-1.4,2.5-2.1,3.7c-8.3,0.9-16.9,1.4-24.9,2.6c7.8,1.5,16.8-0.3,24.1-1c-1.1,2.2-4.8,1.7-7.6,2.1
		c-6.3,0.9-14.7,1.5-22,2.1c5.3-8.5,10.6-17,16-25.4c5.6,2.6,8.1-2.3,11-4.5c4.4-3.3,12.5-3.8,19.1-3.1c-4.3,7.2-8.1,14.9-12.6,22
		c-4.1-1.6-5.1-6.9-9.2-8.9c-3-1.5-6.3-2.4-10-2.9C60.8,80.6,64.3,80.5,67.3,81.9z M91.1,111.5c1.3-0.8,3.4-0.1,3.9,0.8
		C93.7,113.4,92,112.4,91.1,111.5z M94.3,113.6c3.2-1,4,2.6,6.3,3.4c-0.2,0.7-1.1,0.7-1.6,1C97.3,116.8,95,114.9,94.3,113.6z
		 M105.3,111.5c-2.4-3.6-7.5,2.1-9.2-1c3.6-1.3,5.9-3.9,11.3-3.4c3.4,3.9,0.4,10.9-3.7,11C102.5,116.1,106.9,114.7,105.3,111.5z
		 M102.4,116.2c-1.6-0.9-2.8-2.3-3.9-3.7c1.5-0.7,4-1.6,5.8-0.5C104.5,114.3,103,114.8,102.4,116.2z M100,119.3
		c0.7-0.5,1.8-1.1,2.6-0.8C102.4,119.8,100.8,120.1,100,119.3z M111.8,127.2c-3.4-1.8-6.3-4.2-9.4-6.3c0.9-1.5,2.3-0.8,3.4,0
		c0.1-0.9-0.2-1.4-0.8-1.6c2.6-1.9,5.8-4.4,5.2-8.9c-0.2-1.3-1.3-2.2-1-3.9c-3.8-4.3-11.4,2.9-14.4,2.6c-2.2-0.2-5.1-4.1-6.8-5.5
		c-2.5-2-4.6-3.5-7.1-5c2.4,4.4,7.7,7.3,10.2,10.7c-1.2,0.2-1.6-0.3-2.6-0.3c-3.4-3.4-6.9-6.6-10.5-9.7c0.6-2.4,2-3.9,2.6-6.3
		c4.7,1.2,6.5,2,12.1,2.4c11.2,0.8,14.6,12.8,27.2,10.7c-3,5.7-6.8,10.5-9.4,16.5c2.3,0.1,2.7-2.5,3.7-3.9c2.7-4.2,6.3-8.6,8.9-13.4
		c0.8-0.3,1.8-0.5,2.4-1C121.6,111.6,116.3,119.7,111.8,127.2z M133.6,92.1c-2.6,4.3-4.8,8.7-8.6,11.3c4.1-9.2,11.8-17,15.7-27.2
		c0.6-0.9-1.5,1.2-1.8,1.6c-1.6,2-2.6,4.7-4.2,7.1c-4.1,6.4-9.4,13.5-13.6,19.9c-10.4,2.9-15.3-6.2-22.3-9.2c-5.1-2.2-12.7,0-17-3.7
		c2.8-7.8,7.4-13.7,11-20.7c1.2,2.3,1.9,4.2,1.3,6.8c-0.4,1.8-2,3-2.1,4.5c-0.2,3.2,2.4,4.3,4.5,6.3c6.5,2.7,10.9,8.2,17.3,10.2
		c7.5,2.3,10.6-5.7,12.6-11.3c1.5-4.3,4.2-6.5,3.7-11.8c-0.5-4.8-3.8-9.9-7.1-12.3c-1.7-1.2-4.4-1.7-4.7-4.5
		c-0.5-4.3,3.8-6.9,4.2-10c0.4-2.6-1.3-4.5-2.9-4.7c-3.3-0.5-3.6,3.1-6,3.4c-2.7,0.3-3.4-3-6-1.6c4.3-7.9,8.9-15.6,13.4-23.3
		c6.5,5.5,13,11,18.9,17c-1.1,7.5-12,9.1-12.8,16.2c-0.1,1.1-0.1,2.4,0.5,3.7c3.7,8,15.8-1.5,22.8,3.7
		C145.3,73.1,139.3,82.7,133.6,92.1z M151.1,62.5c-2.9-1.8-6.7-2.3-11-1.8c-2.2,0.2-4.1,1.5-5.8,1.6c-3.3,0.1-6.4-2.5-6.5-5
		c-0.3-4.2,5.2-6.7,7.9-8.9c2.7-2.2,3.9-4.6,5.5-7.3c4.5,3,7,7.8,11.8,10.5c-2.1-5.5-7.7-9.1-10.7-12.8c-0.2-0.7,0.4-0.7,0.3-1.3
		c5.2,4.7,9.8,10,14.9,14.7C155.3,55.5,153,58.8,151.1,62.5z"/>
</g>
</svg>
