<svg id="Layer_1" data-name="Layer 1" xmlns="http://www.w3.org/2000/svg" viewBox="0 0 181.51 53.16"><defs><style>.cls-1{fill:#fff;}</style></defs><path class="cls-1" d="M136.32,4.81c1.23-.65,2.75-1.28,4.11-.59,1.61.83,3,2,4.6,2.87s3.22,1.46,4.5,2.68c1.67,1.58,2.06,4.05,3.75,5.6a19.25,19.25,0,0,0,5.62,3.13,31.22,31.22,0,0,1,7.71,4.16c1.72,1.33,3.58,2.46,5.4,3.64a11.11,11.11,0,0,1,3.16,3.35c-1.53-.94-3.26-1.45-4.79-2.36-2.14-1.16-4.2-2.47-6.34-3.63-3.44-1.83-7.46-2.19-10.82-4.19A9.86,9.86,0,0,1,149.54,16a33,33,0,0,1-1.74-3.65c-.59-1.25-1.89-1.87-2.94-2.66a41.63,41.63,0,0,1-4.64-4.27C136,12.54,130.77,19,126,25.64c-1.52,2.2-3.34,4.18-5,6.25A25,25,0,0,1,122.82,27,27.15,27.15,0,0,1,118,31.44c1.18-1.79,2.1-3.73,3.32-5.5,1.86-2.73,3.75-5.44,5.59-8.18-2.14,1.93-4.16,4-6.46,5.73q-2.28,1.7-4.51,3.43a93.11,93.11,0,0,1,6-7.33,67.93,67.93,0,0,1-7.26,4.85A53.51,53.51,0,0,1,118.8,20a85.09,85.09,0,0,1-8.11,5,54.38,54.38,0,0,1,4.45-4.14c1.72-1.36,3.53-2.6,5.27-3.92a5.34,5.34,0,0,1-3.14-1.78,16.38,16.38,0,0,0-2.47,1.82l-.65.26c.32.44-.15.69-.38.94a11.81,11.81,0,0,0-1.61,1.63l-.42-.4a8.63,8.63,0,0,0,2.18-1.9c-4.92,2.93-9.47,6.91-15.25,8.05A26.39,26.39,0,0,0,104,28.76a22.43,22.43,0,0,1,4.22,2.43c-4.23-.23-8-2.36-11.76-4-3.33-1.49-7-.46-10.55-1.06-3.11-.31-5.7-2.26-8.68-3a38.47,38.47,0,0,1-8.34-3c-2.45-1.3-4.29-3.41-6.5-5a37,37,0,0,1-3-2.47c-1.58,3.36-2.93,6.83-4.78,10.06C52.39,26.63,50.11,30.63,47,34c1.44-3.17,3.22-6.17,4.67-9.33a62.6,62.6,0,0,1-6.3,7.85A65,65,0,0,1,50.41,23C47.09,26.67,44,30.55,40.29,33.77a80.9,80.9,0,0,1,5.77-8.62A47.36,47.36,0,0,1,39.2,30c1-1.36,2-2.76,3-4.15-2,1.55-3.86,3.22-5.83,4.77C34.66,32,32.73,33.15,31,34.53c1.19-1.56,2.63-2.93,3.68-4.6,2.34-2.31,5-4.24,7.37-6.55-5.14,3.21-9.81,7.07-14.64,10.71-4.2,3.1-8.44,6.15-12.75,9.1a55.29,55.29,0,0,1-8.11,4.66,25.94,25.94,0,0,0-3,1.63c1.39-1.89,3.65-2.74,5.52-4,5.58-3.69,10.82-7.87,16-12.08,4.17-3.53,8.23-7.21,12.71-10.36q5.86-4.12,11.79-8.17A43.8,43.8,0,0,1,57,10.62c1-.4,2.31-.69,3.12.24,2,2.1,4.48,3.69,6.65,5.62,3.16,2.75,7.52,3,11.42,3.85,2.75.52,5.11,2.33,7.94,2.53,3.48.28,7.12,0,10.42,1.41,5-1.26,9.06-4.49,13.23-7.32,1.92-1.3,3.79-2.69,5.73-4,.85-.49,1.86-1.15,2.87-.74s1.15,2.22,2.54,2.17c1.94-.15,3.52-1.44,5.08-2.47C129.38,9.5,132.63,6.82,136.32,4.81Z"/><path class="cls-1" d="M138,11.78A12.42,12.42,0,0,1,140.49,9Q135.24,17.31,130,25.68A87.73,87.73,0,0,1,138,11.78Z"/><path class="cls-1" d="M137.07,16.5c.77-1.05,1.38-2.53,2.85-2.68-.25,1.62-1.43,2.83-2.24,4.19a62.58,62.58,0,0,1-4.6,6A52.44,52.44,0,0,1,137.07,16.5Z"/><path class="cls-1" d="M115.09,17.85c1-.69,2.09-1.71,3.4-1.37,0,.15.06.46.09.61-3,2.32-6,4.58-9.22,6.62C111.27,21.75,112.84,19.46,115.09,17.85Z"/><path class="cls-1" d="M56.55,23.3c.84-1.41,1.47-3.1,2.91-4a17.58,17.58,0,0,1-1.8,4.21c-1.73,3.3-3.31,6.73-5.63,9.67A64.39,64.39,0,0,1,56.55,23.3Z"/><path class="cls-1" d="M111.09,20.52c-.46-.32.29-.77.56-.44C111.51,20.2,111.23,20.42,111.09,20.52Z"/><path class="cls-1" d="M133.63,25.23c1.41-1.5,2.69-3.12,4.19-4.54A15.77,15.77,0,0,1,133.63,25.23Z"/><path class="cls-1" d="M60.38,23.27c-.63,3-2.53,5.55-3.74,8.34A33.77,33.77,0,0,1,60.38,23.27Z"/><path class="cls-1" d="M61,28.93c.23.29.51.64.32,1.05a16.35,16.35,0,0,1-1.51,3.46C60.18,31.93,60.68,30.45,61,28.93Z"/></svg>