<svg id="Layer_1" data-name="Layer 1" xmlns="http://www.w3.org/2000/svg" viewBox="0 0 145.55 145.55"><defs><style>.cls-1{fill:#fff;}.cls-2{fill:none;stroke:#fff;stroke-miterlimit:10;stroke-width:3.86px;}</style></defs><path class="cls-1" d="M51.17,126.41c-2.31,0-3.47-.58-3.47-1.84l.09-.58a26,26,0,0,1,1.07-2.89c.57-1.45,1.44-3.38,2.5-5.69,1.93-4.44,4.34-9.74,7.33-15.92C63.61,89,68.24,79.53,72.58,71s8.3-15.92,11.87-22.28c-1.26,1-2.7,2.22-4.44,3.76S76.25,55.9,73.84,58a1.22,1.22,0,0,1-.87.29,4.46,4.46,0,0,1-2.12-.68c-.87-.48-1.26-1-1.26-1.44,0-1,2.9-3.86,8.59-8.78L88.5,38.92l3.86-4.34c1.93-2,3.66-4,5.11-5.69s2.89-3.47,4-5l.87-.29a3.73,3.73,0,0,1,2.31,1.16A3,3,0,0,1,106,26.86l-.1.29a33.66,33.66,0,0,1-2.6,4,51.24,51.24,0,0,1-4.05,4.53,26.32,26.32,0,0,0-2.42,2.41c-.19.19-1.25,1.83-3.18,4.82S90,48.76,88.4,51.65s-3.28,5.89-4.92,9c-5.11,9.55-9.74,18.52-13.69,26.82s-7.53,16.11-10.42,23.24q-1.3,3-3.47,9a10.85,10.85,0,0,1-.39,1.84l-.58,1.73a4.22,4.22,0,0,1-2,2.9A3.53,3.53,0,0,1,51.17,126.41Z"/><path class="cls-1" d="M23.72,52.81c4,2.6,9.56.12,11.85-3.74-.14.15-.12.14-.14.26s0,.07.16.36l-.17-.31s0,0,.09.14a.58.58,0,0,0,.48.12h-.45L33.18,49C35,48,38,46.2,38.27,44.57v.07l0,0a.7.7,0,0,0,.13.19c0,.05.15.1.12.09l-.26-.09.38.07-3.23.1c1.08-1.24,3.19-2.81,2.66-4.65L38,40.15c0,.05.25.34.29.32h.14c.25,0,.54-.27.34-.09l-2.61,2.27c.24-1,1.27-3.75,1.23-4.76a2.27,2.27,0,0,0-.1-.75,2.38,2.38,0,0,1-.21-1,9.86,9.86,0,0,1,1.19-3.77l-.08.26.06-.36c0-.31,0-.18.12,0a.36.36,0,0,0,.4.13l-.28,0a9.7,9.7,0,0,0-5.28,2.58l-1,1.06a7.49,7.49,0,0,1-.39-2.06c0-.19.15-.61.09-.31a.29.29,0,0,0,.2.26h0s0,0,.06,0l.1-.06a9.71,9.71,0,0,0-2.95,4.46l-.75-.84a2.7,2.7,0,0,1-.62-2s.15.16.25.14l-.21,0c.09,0,0,0,.08,0h0a11.1,11.1,0,0,0-1.68,5.06C25.89,40,25,39.27,25,38.32c0,0,.07.11.08.09l-.17,0c.14,0,.11,0,.08,0a13.4,13.4,0,0,0-1.43,4.79c-.29-.59-.92-1.78-1.21-2.36l.07.09c-.15-.16-.11-.13-.2-.15l.15,0-.21.07s0-.08,0,0c-1.86,3.74-2.39,9.13,1.5,11.77-1.31,2-2.43,4.45-2.1,6.86l-.14.13c-.54-2.49.52-4.95,1.75-7l.06.3c-4-2.68-3.73-8.22-2-12.17a1.3,1.3,0,0,1,.31-.54,1.52,1.52,0,0,1,.63-.3,1.25,1.25,0,0,1,1,.49l0,.06.58,1.05-.93.15c.23-1.13.77-4.76,2.47-4.24l-.18,0a1,1,0,0,1,.72.33,1.09,1.09,0,0,1,.27.75v-.11a1.44,1.44,0,0,0,.37.68l-1,.3A10.68,10.68,0,0,1,27,34.93a1.24,1.24,0,0,1,1.49-.52l-.2,0a1.09,1.09,0,0,1,1,1c0,.45,0,1,.33,1.33l-1.15.24a10.91,10.91,0,0,1,2.81-4,1.33,1.33,0,0,1,.41-.27,1.29,1.29,0,0,1,1.72,1.58.31.31,0,0,0,0,.19l-1.32-.31a10.92,10.92,0,0,1,6.12-3.29,2.5,2.5,0,0,1,.4,0l-.28,0a1.38,1.38,0,0,1,1.07.13c.85.44.72,1.43.59,2.17a7.89,7.89,0,0,0-.92,3.26,5.49,5.49,0,0,1,0,3.6l-1.63-1a1.46,1.46,0,0,1,.94-.42A1.6,1.6,0,0,1,40,40a5.17,5.17,0,0,1-1.59,4.71L37.73,43H38.8a2.28,2.28,0,0,1,.93.47,1.53,1.53,0,0,1,.43,1.19c-.49,2.43-2.6,3.72-4.53,4.75l-.15-1.49.53.18h-.44a1,1,0,0,1,.5,0,1.17,1.17,0,0,1,.86.87l-.18-.31a.83.83,0,0,1,.23.6,1.17,1.17,0,0,1-.39,1A11.19,11.19,0,0,1,31.65,54a8.39,8.39,0,0,1-8-1l.11-.16Z"/><path class="cls-1" d="M120.16,90.82c-4.35-2.19-9.37.18-11.59,4.19a.52.52,0,0,0,.18-.37s0,0,0,.1a.39.39,0,0,0-.14-.21.31.31,0,0,0-.18-.07c.49.09,2.08.56,2.59.69l-1.7,1a10.87,10.87,0,0,0-2.16,1.64,3.72,3.72,0,0,0-1.14,2v-.1c0-.09,0-.07,0-.07s.06,0-.12-.21a.56.56,0,0,0-.22-.14c-.09,0-.12,0,0,0h-.07l3.24-.09c-.7.83-2.31,2.15-2.54,3.23a2.53,2.53,0,0,0,.07,1.65.75.75,0,0,0-.15-.21c-.16-.13-.15-.09-.12-.09a.85.85,0,0,0-.3,0c-.17,0-.34.2-.19.07l2.28-2.11c-.16.93-.81,3.49-.84,4.38a2,2,0,0,0,.11.94l0-.07a3.52,3.52,0,0,1,0,2.76,10.7,10.7,0,0,1-.81,2l.1-.36v.35c0,.22,0,.21-.07,0a.37.37,0,0,0-.36-.1l.27,0c-.19,0,0,0,0,0a8.85,8.85,0,0,0,5.06-2.76l1-1.2a8.35,8.35,0,0,1,.42,2.4.44.44,0,0,0-.21-.24s0,0,0,0-.11.06,0,0a8.88,8.88,0,0,0,2.34-3.43l.36-1.17c.72.77,1.64,1.7,1.49,2.88,0,0-.15-.16-.24-.14l.2,0c-.09,0,0,0-.07,0s.06-.12.06-.12a10,10,0,0,0,1.3-5.14c.54.7,1.52,1.47,1.54,2.46,0,0-.07-.11-.08-.09h.11a12.06,12.06,0,0,0,1.24-4.78c.33.55,1,1.66,1.36,2.2l0-.06c.1.12.12.13.14.14s.13,0,.09,0,.14-.28.23-.52c1.56-3.68,1.79-8.92-2.12-11.19a11.12,11.12,0,0,0,1.88-7h.19a11.23,11.23,0,0,1-1.57,7l-.08-.3a6.83,6.83,0,0,1,2.57,2.68c1.4,2.85,1,6.2,0,9.09l-.17.44a1,1,0,0,1-1.84.24s0,0,0-.07l-.65-1,.91-.21a11.42,11.42,0,0,1-1.08,3.75,1.16,1.16,0,0,1-1.87.28,1.05,1.05,0,0,1-.27-.75v.12a1.44,1.44,0,0,0-.37-.68l1-.36a9.16,9.16,0,0,1-1.54,4.71,1.24,1.24,0,0,1-1.29.26l.21,0a1,1,0,0,1-.72-.36c-.5-.59-.06-1.33-.67-1.87l1.16-.27a10.25,10.25,0,0,1-2.62,4.13,1.29,1.29,0,0,1-2.25-1,1.5,1.5,0,0,0,0-.38l1.35.27a10.46,10.46,0,0,1-5.71,3.48,2.68,2.68,0,0,1-.65.1l.28,0a1.44,1.44,0,0,1-1.74-1,4.18,4.18,0,0,1-.08-1.3,7.93,7.93,0,0,0,.88-3.11c0-.07,0-.15,0,0l.32.59a5.17,5.17,0,0,1-.54-4.26l1.64.93-.17.15a1.55,1.55,0,0,1-2.34-.88,5.06,5.06,0,0,1,1.38-5l.72,1.66a5,5,0,0,1-1.44-.08,1.41,1.41,0,0,1-.89-1,1.88,1.88,0,0,1,0-.56c.47-2.42,2.46-3.82,4.41-4.86l.15,1.52-.53-.18.19,0a1.33,1.33,0,0,1-.84-2.23l-.15.18a10.62,10.62,0,0,1,5.86-4.42,8.23,8.23,0,0,1,7,1l-.07.18Z"/><circle class="cls-2" cx="72.78" cy="72.78" r="70.85"/></svg>