<?xml version="1.0" encoding="utf-8"?>
<!-- Generator: Adobe Illustrator 26.0.1, SVG Export Plug-In . SVG Version: 6.00 Build 0)  -->
<svg version="1.1" id="Layer_1" xmlns="http://www.w3.org/2000/svg" xmlns:xlink="http://www.w3.org/1999/xlink" x="0px" y="0px"
	 viewBox="0 0 148 147.8" style="enable-background:new 0 0 148 147.8;" xml:space="preserve">
<style type="text/css">
	.st0{fill:#FFFFFF;}
</style>
<g>
	<g>
		<g>
			<path class="st0" d="M51.6,129.5c-2.4,0-3.6-0.6-3.6-1.9l0.1-0.6c0.1-0.5,0.5-1.5,1.1-3c0.6-1.5,1.5-3.5,2.6-5.9
				c2-4.6,4.5-10.1,7.6-16.5c5.1-10.9,9.9-20.7,14.4-29.5c4.5-8.8,8.6-16.5,12.3-23.1c-1.3,1-2.8,2.3-4.6,3.9
				c-1.8,1.6-3.9,3.5-6.4,5.7c-0.2,0.2-0.5,0.3-0.9,0.3c-0.6,0-1.3-0.2-2.2-0.7c-0.9-0.5-1.3-1-1.3-1.5c0-1,3-4,8.9-9.1l10.7-8.8
				l4-4.5c2-2.1,3.8-4.1,5.3-5.9c1.6-1.9,3-3.6,4.2-5.2l0.9-0.3c0.7,0,1.5,0.4,2.4,1.2c0.9,0.8,1.3,1.5,1.3,2.2l-0.1,0.3
				c-0.7,1.3-1.6,2.6-2.7,4.1c-1.1,1.4-2.5,3-4.2,4.7c-0.6,0.5-1.4,1.3-2.5,2.5c-0.2,0.2-1.3,1.9-3.3,5c-1.9,3.1-3.7,6.1-5.4,9.1
				c-1.7,3-3.4,6.1-5.1,9.3c-5.3,9.9-10.1,19.2-14.2,27.8c-4.2,8.7-7.8,16.7-10.8,24.1c-0.9,2.1-2.1,5.2-3.6,9.3
				c-0.1,0.7-0.2,1.3-0.4,1.9c-0.2,0.6-0.4,1.2-0.6,1.8c-0.4,1.5-1.1,2.5-2.1,3C53.1,129.4,52.5,129.5,51.6,129.5z"/>
		</g>
	</g>
	<g>
		<g>
			<g>
				<g>
					<g>
						<path class="st0" d="M33.1,107.3c-0.1,0-0.2,0.2-0.1,0.3l0.3-0.1L33.1,107.3z"/>
						<path class="st0" d="M33.5,108.6c0.3,0.1,0.6,0.1,0.8-0.2c-0.4,0.1-0.3-0.1-0.7,0c-0.1-0.1-0.1-0.3,0-0.4
							c-0.1,0-0.1-0.3-0.4-0.2c0,0.3,0.1,0.6,0.5,0.7C33.6,108.6,33.5,108.6,33.5,108.6z"/>
						<path class="st0" d="M46.7,120.3L46.7,120.3C46.6,120.3,46.6,120.3,46.7,120.3z"/>
						<path class="st0" d="M56.6,125.1c-0.1,0-0.1,0-0.1,0C56.6,125.1,56.6,125.1,56.6,125.1z"/>
						<path class="st0" d="M58.3,126c0,0-0.1,0-0.1-0.1C58.2,126,58.3,126,58.3,126z"/>
						<path class="st0" d="M46.7,120.3l0.2,0.2C46.9,120.5,46.8,120.4,46.7,120.3z"/>
						<path class="st0" d="M35.7,109.9c-0.1,0-0.1-0.1-0.2-0.1C35.5,109.9,35.6,109.9,35.7,109.9L35.7,109.9z"/>
						<path class="st0" d="M42.4,117.9L42.4,117.9c-0.1,0-0.2,0-0.2,0L42.4,117.9z"/>
						<path class="st0" d="M39.4,115.6c0.1,0.1,0.3-0.1,0.4-0.2c-0.1,0.1-0.2,0.1-0.3,0C39.5,115.5,39.5,115.6,39.4,115.6z"/>
						<path class="st0" d="M35.4,111.3l-0.1,0C35.3,111.2,35.4,111.2,35.4,111.3z"/>
						<path class="st0" d="M44.6,119.4c0,0,0,0.1,0,0.1C44.6,119.5,44.6,119.5,44.6,119.4z"/>
						<path class="st0" d="M125,84.6C125,84.6,125.1,84.6,125,84.6C125,84.6,125,84.5,125,84.6z"/>
						<path class="st0" d="M127.1,80.6L127.1,80.6c0.1,0.1,0.1,0.1,0.2,0.1L127.1,80.6z"/>
						<path class="st0" d="M61.6,127.3C61.6,127.3,61.6,127.3,61.6,127.3C61.5,127.3,61.5,127.3,61.6,127.3z"/>
						<path class="st0" d="M93.2,125c-0.4-0.1,0.4-0.5-0.2-0.6C93.1,124.6,92.7,125,93.2,125z"/>
						<path class="st0" d="M35.7,110c0,0,0.1,0.1,0.1,0.1C35.8,110,35.7,110,35.7,110z"/>
						<path class="st0" d="M93,124.5L93,124.5L93,124.5C93,124.5,93,124.5,93,124.5z"/>
						<path class="st0" d="M69.6,128.3c0-0.1,0-0.1-0.1-0.1C69.5,128.2,69.5,128.3,69.6,128.3z"/>
						<path class="st0" d="M63.7,127.1l0.1,0.1C63.8,127.1,63.8,127.1,63.7,127.1z"/>
						<path class="st0" d="M72.7,128.1c0.1,0,0.1,0.1,0.2,0c0,0,0,0,0,0C72.8,128.2,72.8,128.2,72.7,128.1z"/>
						<path class="st0" d="M75.9,128.1C75.9,128,75.9,128,75.9,128.1c-0.1,0-0.1,0-0.2,0L75.9,128.1z"/>
						<path class="st0" d="M122.4,93.6c0.1,0,0.2,0,0.3,0C122.5,93.5,122.6,93.1,122.4,93.6z"/>
						<path class="st0" d="M35.5,110c0.1,0,0.1,0,0.1,0L35.5,110C35.6,109.9,35.5,110,35.5,110z"/>
						<path class="st0" d="M72.9,125.9l0.5,0C73.2,125.9,73.1,125.9,72.9,125.9z"/>
						<path class="st0" d="M110,111.9c0,0,0-0.1,0.1-0.1C110,111.8,110,111.8,110,111.9z"/>
						<path class="st0" d="M74.8,125.9c0.1,0.1,0.2,0.2,0.3,0.2c0,0,0,0,0.1-0.1L74.8,125.9z"/>
						<path class="st0" d="M122.7,93.6L122.7,93.6L122.7,93.6z"/>
						<path class="st0" d="M123.2,90.3c-0.2,0.4,0.3,0.3,0.4,0.5c-0.1,0.6-0.3,0.2-0.6,0.3c0,0.4,0.2,0.7,0.1,1c-0.1,0-0.1,0-0.2,0
							c0.1,0.4-0.4,1-0.2,1.6c0,0-0.1,0-0.1,0c0.2,0,0.4,0.1,0.5,0.1c-0.1,0.2,0.1,0.5-0.2,0.4c0.1-0.1,0-0.2-0.1-0.2l0,0.2
							c-0.4,0.1,0-0.3-0.2-0.4c-0.1,0.4,0,1-0.2,1.3c-0.3-0.1,0.2-0.8-0.3-0.5l0.3-0.4c-0.6,0.2,0.2-0.3-0.5-0.2
							c-0.4,0.6-0.1,0.8-0.5,1.3c0.1,0.2,0.3,0.1,0.4,0.3c-0.1,1-1.1,0.3-1,1.1c0.1,0.3,0.5,0.5,0.1,0.9l-0.3-0.3
							c-0.3,0.6,0.3,0.6-0.2,1.1c-0.1-0.2,0.1-0.5,0-0.4c-0.5,0.3,0,0.4-0.1,0.7l-0.3-0.1c-0.3,0.6-0.4,1.4-0.8,2.1
							c-0.1-0.1-0.1-0.3-0.3-0.2c-0.3,0.9-1.1,1.7-1.8,2.4l0,0.5c-0.1,0.1-0.2,0.1-0.2-0.1c-0.3,0.2,0.1,0.1,0.1,0.3
							c-0.1,0.2-0.3,0.1-0.3,0c-0.2,0.7-0.6,1.8-1.3,2.2l0-0.2c-0.4,0.3,0.1,0.8-0.4,1.1l0-0.1c-0.8,0.8-1.4,2-2.3,2.3
							c0.2,0.4-0.9,0.7-0.5,1.2c-0.7,0.3-0.6,0.1-1.4,0.6c-0.2,0.2,0,0.5-0.2,0.8l-0.2-0.2l-0.1,0.5l-0.4-0.1l-0.1,0.3
							c0.1-0.1,0.3-0.1,0.3,0c-0.2,0.4-1,0.6-1.1,0.5l-0.6,0.9c-0.1-0.1,0-0.3,0.1-0.4c-0.2,0.6-0.3-0.2-0.5,0.4
							c0.1,0,0.1,0.2,0.1,0.2c-0.3,0-0.8,0.4-1,0.7l-0.1-0.2c-0.6,0.4-1.1,1.2-1.9,1.7c0.3-0.1,0.5,0.2,0.3,0.4l-0.3-0.2
							c0,0.3,0.3-0.1,0.2,0.3c-0.3,0.2-0.4-0.2-0.3-0.4L105,116c-0.1-0.1,0-0.2-0.1-0.3c0,0.3-0.8,0.1-0.7,0.5l-0.1-0.1
							c-0.7,0.5-1,0.8-1.5,1.2c0.1,0.2-0.1,0.3-0.2,0.7c-0.2,0.1-0.5,0.2-0.8,0.3c-0.3,0.1-0.6,0.2-0.8,0.4c-0.3,0.3,0,0.3-0.1,0.5
							c-0.2-0.2-0.7,0.1-0.5-0.2c-0.6,0.4-0.8,0.5-1.6,1.2c0.1,0,0.3,0,0.3,0.1c-0.1,0.1-0.4,0.1-0.4,0l0,0c-0.4,0.4-1,0.6-1.6,0.7
							c-0.6,0.1-1.2,0.2-1.5,0.6l0,0l-0.7,0.6c-0.4,0.1,0.1-0.3-0.2-0.3c-0.7,0.8-1.4,0.5-2,1.1c-0.8-0.5-2,0.7-3,0.5l0.1,0.2
							c-0.2,0.2-0.3,0-0.4,0c0.1,0.1,0.3,0.1,0.2,0.2c-1.6,0.8-3.7,0.7-5.5,0.9c-0.7,0.1-0.2,1-1.1,0.8l0.2-0.4
							c-1.3,0.6-2.8,0.3-4,0.8c0.1-0.1,0.1-0.2,0.2-0.2c-0.3-0.2-1,0.1-1,0.3c-0.2,0-0.1-0.2-0.2-0.3c-0.3-0.1-0.7,0.3-0.9,0.1
							c0,0,0.1-0.1,0.1-0.1c-0.2,0.1-0.9,0-0.7,0.3c-0.5-0.1-1,0.1-1.4,0c-0.3,0.3-0.9-0.1-0.9,0.3c0-0.5-0.9-0.3-1.2-0.1
							c0.1-0.1-0.3-0.1-0.1-0.3c-0.4,0-0.7,0-0.6,0.3c-0.6-0.6-1.4,0.3-1.7-0.4c-1.1,0.2-2.1,0.3-3.1,0.3c0.1-0.4,1.1,0,1.1-0.4
							c-0.9,0.1-1.5,0.4-2.4,0.1c-0.2-0.1,0.2-0.2,0.3-0.2c-0.9,0-1.7-0.3-2.6-0.2c0,0,0.1-0.1,0.2-0.1c-0.2,0-0.4-0.1-0.4,0.1
							l0.2,0c0.2,0.3-0.8,0.5-0.8,0.6c0.4-0.5-0.8-0.3-0.2-0.9c-0.1,0-0.3,0.1-0.3,0.2c-0.1-0.1-0.2-0.2,0-0.3
							c-0.6,0-0.4,0.2-0.9,0.1c0-0.1,0.1-0.1,0.2-0.2c-0.3,0.1-0.6,0.2-1,0c0-0.1,0-0.1,0.1-0.1c-0.7-0.2-1.4,0.2-2.2-0.2
							c0.4-0.3-0.2-0.2-0.2-0.6l-0.5,0l0.1,0.2c-0.4-0.1-0.8,0-1.1-0.2l0.3,0l-0.7-0.2l0.3,0.3c-0.4,0-0.1,0.5-0.6,0.2
							c0.1,0-0.4-0.1-0.5-0.4l0,0c-0.2,0-0.5,0.1-0.7-0.1c0-0.1,0.2-0.4,0.2-0.5c-0.3,0.2-0.9-0.2-1.2,0c0.1,0,0.2-0.2,0.2-0.3
							l-0.2,0.2c-0.1-0.1-0.2-0.2-0.1-0.3c-0.5-0.2,0,0.5-0.6,0.1c0.1,0,0,0,0.2,0c-0.3-0.2-0.6-0.2-0.9-0.3
							c-0.3-0.1-0.6-0.2-0.8-0.4c0-0.4,0.5,0.2,0.5-0.2c-0.8-0.3-1.8-0.4-2.5-0.8l0.1,0.1c-0.3,0.4-0.4-0.5-0.9-0.5
							c0.1,0,0.3-0.2,0.2-0.2c-0.5-0.3-1.1-0.4-1.9-0.7l0.2-0.1c-0.2-0.3-0.7-0.5-1-0.8c-0.2,0.1-0.3-0.1-0.3,0.2
							c-0.5-1.3-2.1-0.8-2.5-1.9c0.1,0.1,0.3,0.1,0.2,0l-0.7-0.4c-0.1,0.2,0,0.2,0,0.4c-0.2,0-0.4,0-0.6-0.1
							c0.4,0.1,0.2-0.3,0.2-0.5c0,0.1-0.1,0.1-0.1,0.2c-0.1-0.6-0.3,0.3-0.7-0.3l0.1-0.1c-0.2-0.1-0.5-0.1-0.7-0.3
							c0.1-0.3,0.3,0.1,0.4-0.1c-0.3-0.2-0.9,0-0.9-0.4c0.2,0,0.3,0.2,0.5,0.2c-0.1-0.5-0.2-0.4-0.3-0.6l0,0l-0.4-0.5l0.1,0.2
							c-0.8,0.3-0.8-0.4-1.5-0.5c0.7,0,0.2-0.1,0.5-0.3c-0.1-0.2-0.2-0.4-0.1-0.4c-0.4,0-0.2-0.5-0.7-0.5c0.1-0.1-0.2-0.2,0-0.3
							c-0.3-0.2-0.1,0.2-0.2,0.3c-0.6-0.1-0.7-1.2-1.5-1.4c-0.6-0.3-1-0.2-1.5-0.5c0-0.3,0.4-0.1,0.4-0.1c-0.1-0.3-0.4-0.5-0.7-0.7
							c0.1,0,0.1-0.1,0.1-0.3c-0.2-0.2-0.4,0.1-0.5-0.2c0.1,0,0.3-0.1,0.5-0.1c-0.3-0.2-0.6-0.3-0.9-0.5c0.1-0.2,0.3,0,0.5,0
							c-0.3-0.2-0.7-0.6-1-0.5l0.1,0.2c-0.1-0.1,0.1-0.2,0.2-0.2c0.4,0.1,0.2,0.4,0.2,0.5l-0.2-0.1c-0.3,0.6,0.7,0.6,1,1l-0.4,0.1
							l0.6,0.1c0,0.1-0.1,0.4-0.3,0.2c0.1,0.4,0.3,0.1,0.4,0.5c0,0,0,0.1-0.1,0l0.3,0.1c-0.1,0-0.2,0.2-0.3,0.1
							c0.3,0.6,0.9,0.4,0.8,0.8l-0.1,0c0.7,0.5,0.3-0.2,1,0l-0.2,0.8l0.3-0.2c0.1,0.1,0.2,0.2,0.1,0.3c0.4,0.1,0.1-0.1,0.3-0.2
							c0.1,0.5,0.9,0.7,0.6,1.1c0.3-0.1-0.2-0.4,0.3-0.2c-0.3,0.5,0.4,0.3,0.5,0.7c-0.3,0.1-0.4-0.2-0.3,0.2
							c0.5-0.2,0.5,0.5,0.8,0.7c0.2-0.3,0.6,0.3,1.1,0.5c-0.1,0.1,0.7,0.8,1,1.2l0,0c0.3-0.2,0.6,0.1,1,0.3
							c-0.1,0.2-0.2,0.2-0.5,0.2l0.3,0.2c0.1,0,0.3,0,0.5,0.1l-0.2,0.2c0.4,0.3,0.9,0.3,1.3,0.7c0.2-0.2,0-0.8,0.6-0.7
							c-0.1,0.1-0.2,0.3-0.3,0.3c0.1,0,0.2,0,0.3,0.1l-0.3,0.1c0.2,0.2,0.2-0.1,0.4,0c-0.1,0.2,0.1,0.2-0.1,0.3
							c-0.1,0-0.1-0.2-0.2-0.1c0.2,0.2,0.4,0.4,0.4,0.6c0-0.1,0.1-0.2,0.3-0.2c0.4,0.2,0,0.3,0.2,0.5c0.2-0.1,0.3,0.2,0.5,0
							c0.1,0.1,0.1,0.2,0.1,0.3c0.3,0,1,0.6,0.9,0.1l0,0c0,0,0,0,0,0l0,0l0,0c0.8,0.2,1.3,1,2,1.2l0,0.1c0.5,0.1,0.9,0.4,1.3,0.4
							c0.1,0.1,0.2,0.3,0.1,0.4c0.3,0.1,0.4,0,0.8,0.4c-0.4,0,0,0.2-0.4,0c0.4,0.3,0.4,0.5,1,0.4c-0.3,0.2,0.2,0.4,0.4,0.5l-0.2-0.3
							c0.2,0.1,0.4,0.2,0.6,0.3l-0.2,0.3c0.7,0.8,1.8,0,2.3,0.9c0.3-0.1-0.4-0.3-0.1-0.5c0.4,0.2,0.6,0.8,0.8,0.8
							c0.5,0.4,0.7-0.3,1.2,0.1c0-0.1,0-0.5,0.5-0.4c0.4,0.2,0.3,0.7,0,0.7c-0.1,0-0.1-0.1-0.1-0.1c-0.1,0-0.3,0-0.2,0.2l0.1-0.1
							c0.2,0.2,0.7,0.4,0.5,0.5c0.3,0,0.2-0.1,0-0.3c0.5,0.4,0.8,0.3,1.3,0.5c-0.1-0.1-0.1-0.2,0-0.2c0.8,0.4,0.4-0.1,1,0
							c0.3,0.3-0.2,0.4,0.4,0.4c0.3,0.2,0,0.3-0.2,0.4c0.6-0.1,0.9,0.4,1.2,0.5l-0.3,0c0.2,0,0.3,0,0.4,0.1l-0.1-0.3
							c0.1,0.1,0.3,0.1,0.3,0.2c0.2-0.1,0-0.4,0.3-0.5c0.2,0.2,0.7,0,0.7,0.4c-0.6-0.3,0,0.3-0.6,0.2c0.1,0,0.2,0,0.4,0.1
							c0,0,0,0.1-0.1,0.1c0.6,0.4,0.4-0.2,1-0.1c-0.1,0.2,0.1,0.4,0.2,0.3c-0.3,0-0.1-0.3,0.2-0.4c0.4,0.2,0.5,0,0.7,0l-0.2-0.1
							c0.1-0.2,0.3-0.1,0.6-0.1c0,0.1-0.3,0-0.2,0.1c0.4-0.3,0.7,0.4,1.2,0.3c0.2,0.2,0,0.3,0.1,0.4c0.6-0.1,0.5,0.3,1.1,0.2
							c-0.1-0.3-0.2-0.2,0.3-0.4l-0.9,0l0.6-0.2c-0.3,0-0.6,0.1-0.7,0c0.3-0.1,0.3-0.1,0.2-0.3c0.3,0.4,0.7-0.1,1.1,0.2l-0.1,0.6
							c0.6,0.4,1.2-0.2,2,0.1l-0.3-0.1c0.1-0.2,0.5,0,0.8-0.1c0,0.2,0.1,0.3,0.2,0.4c0-0.1,0.6,0.1,0.7-0.3l0.4,0.3
							c0.7,0.2,0.8-0.5,1.4-0.4c-0.2,0.2,0.1,0.4-0.4,0.5c0.2,0,0.4,0.1,0.4-0.1c0.1,0.1,0.6-0.2,0.8,0c0.1-0.1,0.1-0.3,0.4-0.3
							c0,0,0,0.1,0,0.1c0-0.1,0.4-0.1,0.2-0.4c0.7,0.6,1.8-0.1,2.4,0.4c0.5-0.1,1-0.2,1.5-0.2c0,0.1,0,0.1-0.1,0.1
							c0.6,0.2,0.3-0.6,1-0.4c0.4,0.3-0.3,0.2-0.1,0.3c0.1,0.6,0.8-0.2,1.3,0.1l-0.1,0.1c0.4,0.2,0.8-0.3,1.4-0.4c0,0,0,0.1,0,0.1
							c0.3-0.4,1.1-0.6,1.6-0.7c-0.1,0.3-0.2,0.2-0.1,0.4c0.2-0.1-0.1-0.4,0.3-0.5c0.2,0.1,0.5,0.2,0.6,0.4c-0.1,0-0.3,0.1-0.5,0.1
							c0.3,0.3,0.6-0.1,0.8-0.1l0,0.2c0.7-0.2,0.6-0.6,1.4-0.7l-0.1-0.1c0.3-0.5,0.4,0.1,0.7-0.2l0.2,0.4c0.2-0.2,0.8-0.6,1.3-0.7
							c-0.2,0.3-0.7,0.6-1,0.9c0.3-0.1,0.9-0.2,1-0.4c-0.1,0.1-0.2,0.2-0.3,0.1c0.3-0.4,0.6-0.6,1.2-0.7c0.1,0.8,1.4-0.2,1.9,0.2
							c0.8-0.6,1.8-0.5,2.9-0.9c-0.6-0.4,0.3-0.1,0-0.7c0.2-0.1,0.3-0.1,0.4-0.1l0.9,0c0.2,0.1-0.2,0.2-0.1,0.3
							c0.5-0.2,0.3,0.1,0.7,0.1c-0.2-0.2,0.1-0.4,0.4-0.4l-0.5-0.1c0.6-0.6,0.8,0.2,1.4-0.4l-0.2,0.3c0.3-0.3,1.4-0.6,1.6-1.2
							c0.1,0,0.3,0.1,0.1,0.3c1-0.3,1.7-1.5,2.5-1.6l0,0.2c0.1-0.1,0.1-0.4,0.4-0.4c0,0.1,0,0.2,0.1,0.1c0.1-0.1,0.3-0.5,0.6-0.5
							l-0.1,0.2c0.9-0.3,1.1-1.1,1.7-1.5c0.2,0.4,0.9,0.1,1.3-0.1l0,0.1c1-0.6,1.4-1.4,2.1-2.1c0.4,0,0.9-0.3,1.4-0.6
							c0.5-0.4,1-0.8,1.4-1c-0.2,0-0.2-0.3-0.1-0.4c0.2-0.1,0.3-0.7,0.5-0.3l-0.1,0.1c0.4,0.2,0.7-0.2,1-0.5l-0.3-0.4
							c0.6,0,1.1-0.5,1.5-1c0.4-0.5,0.7-0.9,1.2-0.9c0.1-0.3,0.3-0.5,0.4-0.7l0.2,0.2c0.5-0.4,0.8-0.7,1.3-1.3l0,0.3
							c0.3-0.3-0.2-1,0.1-1.3l0.4,0.2c0.5-0.6,1.4-1,1.6-1.9c0,0,0.1,0.1,0,0.3c0.3-0.3,1.2-1,0.6-1.3c0.3,0.2,0.6-0.7,0.7-1.1
							l0.2,0.2c-0.1-0.5-0.1-0.6,0.1-1.1c0.1-0.1,0.2,0,0.1,0.1c0.4-0.3,0-0.4,0.4-0.7l0,0.3c0.3-0.3,0.2-0.4,0.1-0.7
							c0.1-0.3,0.5-0.6,0.7-0.5c-0.1-0.1-0.1-0.4,0.1-0.6c0.1,0,0.1,0.1,0.1,0.2c0.5-0.5,0.3-1.1,0.8-1.3c0.1,0,0.1,0,0.2,0
							c-0.3,0.5-0.6,0.9-0.5,0.8c0.2,0.1,0.5-0.2,0.6,0.3c0-0.4,0-1.2,0.3-1.5c0,0,0.1,0,0.1,0l0,0.1c0.1-0.1,0.1-0.2,0.1-0.3
							c0.1-0.1,0.2-0.2,0.3-0.3c0.2,0.1,0.4-0.4,0.5-0.6c-0.3-0.1-0.1-0.4-0.4-0.2c0,0,0,0.1-0.1,0.2c0,0,0,0.1,0,0.1l0,0
							c-0.1,0.1-0.2,0.3-0.3,0.5c0-0.2,0-0.4,0.2-0.6c-0.1-0.2-0.2-0.4-0.2-0.5c0.5-0.1,1-0.5,1.2-0.5c0.2-0.7,0.7-1.5,0.4-2.1
							c0-0.2,0.2-0.1,0.3-0.2c0,0.1-0.1,0.2,0,0.3c0-0.4,0.5-1.1,0.2-1.3c0.4-0.4,0.2,0.4,0.4-0.3l0.1,0.1c1.1-1,0-2.4,1.2-3.5
							c-0.1,0.1-0.1,0.1-0.2,0.1c0.9-1.5,0.8-3.4,1.8-4.9c0.2-0.4,0-0.5-0.1-0.9l0.3,0l-0.2-0.6c-0.1-0.7,1-1,0.7-2l-0.2,0.1
							c0.1-0.3,0.1-1,0.3-0.9c0,0-0.2-0.1-0.1-0.2l0.2,0c0-0.3-0.1-0.5-0.1-0.8c0.2-0.6,0.6,0.2,0.8-0.7c0-0.3-0.3-1-0.4-0.9
							c0,0.1-0.1,0.3-0.3,0.3l0-0.3c-0.5-0.1-0.9-0.4-1.3,0.3l0.2,0.5l-0.2,0.1l0-0.4c-0.2,0.2-0.1,0.4,0,0.6
							c-0.1,0-0.2,0.1-0.3,0.2l0.4,0.6c-0.2,0-0.3-0.3-0.5,0c0.2,0.3,0.4-0.2,0.5,0.2c-0.3,0.2-0.4,0.1-0.3,0.4
							c-0.1,0-0.2-0.1-0.2-0.2c0.1,0.3-0.1,0.7,0.2,0.8c-0.3,0.2-0.1,0.8-0.5,0.7c0.1,0.1,0.2,0.5,0.2,0.7c-0.4-0.5-0.2,0.8-0.8,0.6
							c0.4,0.4,0,1.1,0.1,1.7c0,0-0.1-0.1,0-0.2c-0.1,0.3-0.3,0.3-0.4,0.5c0.4,0.1,0.3,0.6,0.5,1c-0.5,0.3-0.4-0.4-0.8-0.3
							c0.3,0.1,0.1,0.7,0.4,0.7c-0.3,0.2-0.2,0.2-0.5,0.3c0.5,0.2,0,0.3,0.2,0.6c-0.4,0.3-0.5,0-0.5,0.4
							C123.2,90.7,123.2,90.3,123.2,90.3z M119.4,100.6L119.4,100.6c0-0.1,0.1-0.2,0.1-0.2C119.5,100.4,119.5,100.5,119.4,100.6z
							 M119,101.4c0.1-0.1,0.1-0.2,0.2-0.3c0.1,0,0.2,0.1,0.1,0.2C119.3,101.2,119.1,101.3,119,101.4z M121.7,100.7
							c0,0.2-0.1,0.2-0.2,0.2C121.5,100.8,121.5,100.7,121.7,100.7l-0.1-0.1C121.6,100.6,121.6,100.6,121.7,100.7z"/>
						<path class="st0" d="M121.5,100.3C121.5,100.2,121.5,100.2,121.5,100.3C121.4,100.2,121.4,100.2,121.5,100.3L121.5,100.3
							L121.5,100.3z"/>
						<path class="st0" d="M46.6,120.2L46.6,120.2C46.6,120.2,46.6,120.2,46.6,120.2C46.6,120.2,46.6,120.2,46.6,120.2z"/>
						<polygon class="st0" points="110.6,111 110.7,111.1 110.7,111 						"/>
						<path class="st0" d="M42.8,116.6C42.8,116.5,42.8,116.5,42.8,116.6C42.8,116.5,42.8,116.5,42.8,116.6z"/>
						<path class="st0" d="M41.1,115.1l-0.2-0.3C41,115,41,115.1,41.1,115.1z"/>
						<path class="st0" d="M39.8,114c0,0-0.1,0-0.1,0.1l0,0L39.8,114z"/>
						<path class="st0" d="M64,125.3C64,125.3,64,125.3,64,125.3C64.2,125.2,64.1,125.2,64,125.3z"/>
						<path class="st0" d="M56,123.7c0.1,0,0.2,0,0.3,0C56.2,123.6,56.1,123.6,56,123.7z"/>
						<polygon class="st0" points="72.8,125.9 72.8,125.9 72.9,125.9 						"/>
						<path class="st0" d="M56.7,123.9c-0.1-0.1-0.2-0.1-0.3-0.1C56.4,123.8,56.6,123.9,56.7,123.9z"/>
						<path class="st0" d="M34.7,108.7L34.7,108.7C34.6,108.7,34.6,108.7,34.7,108.7L34.7,108.7z"/>
						<path class="st0" d="M34.6,108.7L34.6,108.7C34.5,108.7,34.6,108.7,34.6,108.7z"/>
						<path class="st0" d="M34.3,108.5l0.2,0.1C34.5,108.6,34.4,108.5,34.3,108.5z"/>
						<path class="st0" d="M36.1,110.5L36.1,110.5C36.2,110.4,36.1,110.4,36.1,110.5z"/>
						<path class="st0" d="M36.6,110.9c-0.1-0.1-0.1-0.4-0.4-0.5l-0.1,0C36.4,110.4,36.4,110.9,36.6,110.9z"/>
						<path class="st0" d="M37.8,113.8l-0.4-0.5c0,0.2,0,0.4-0.2,0.2C37.6,114.3,37.3,113.3,37.8,113.8z"/>
						<path class="st0" d="M39.1,115.2c-0.3-0.2-0.1,0.1-0.2,0.2C39.1,115.4,39.2,115.4,39.1,115.2z"/>
						<path class="st0" d="M50.1,122.4l-0.1,0.2C50.2,122.6,50,122.5,50.1,122.4z"/>
						<polygon class="st0" points="52.9,122.3 52.7,122 52.5,122.2 						"/>
						<polygon class="st0" points="53.5,124.5 53.4,124.5 53.8,124.5 						"/>
						<path class="st0" d="M75.3,128.3l-0.1-0.3C75.1,128.1,75.1,128.4,75.3,128.3z"/>
						<path class="st0" d="M84.8,126.9c0.1,0.1,0.4,0.2,0.5,0C85.2,126.9,84.9,126.9,84.8,126.9z"/>
						<polygon class="st0" points="110.5,114.6 110.4,114.8 110.6,114.5 						"/>
					</g>
				</g>
			</g>
		</g>
	</g>
	<g>
		<g>
			<g>
				<g>
					<g>
						<path class="st0" d="M114.3,39.9c0.1,0,0.2-0.2,0.1-0.3l-0.3,0.1L114.3,39.9z"/>
						<path class="st0" d="M114,38.6c-0.3-0.1-0.6,0-0.8,0.3c0.4-0.1,0.3,0.1,0.7,0c0.1,0.1,0.1,0.3,0,0.4c0.1,0,0.1,0.3,0.3,0.2
							c0-0.3-0.1-0.6-0.5-0.7C113.9,38.6,114,38.6,114,38.6z"/>
						<path class="st0" d="M100.9,27.2L100.9,27.2C100.9,27.3,100.9,27.2,100.9,27.2z"/>
						<path class="st0" d="M91,22.6c0.1,0,0.1,0,0.1,0C91,22.5,91,22.5,91,22.6z"/>
						<path class="st0" d="M89.3,21.7c0,0,0.1,0,0.1,0.1C89.4,21.7,89.3,21.7,89.3,21.7z"/>
						<path class="st0" d="M100.9,27.2l-0.2-0.2C100.6,27,100.7,27.1,100.9,27.2z"/>
						<path class="st0" d="M111.8,37.4c0.1,0,0.1,0,0.2,0C111.9,37.4,111.9,37.4,111.8,37.4L111.8,37.4z"/>
						<path class="st0" d="M105.1,29.5L105.1,29.5c0.1,0,0.2,0,0.2,0L105.1,29.5z"/>
						<path class="st0" d="M108,31.8c-0.1-0.1-0.3,0.1-0.4,0.2c0.1-0.1,0.2-0.1,0.3,0C108,31.9,108,31.8,108,31.8z"/>
						<path class="st0" d="M112,36l0.1,0C112.1,36.1,112.1,36.1,112,36z"/>
						<path class="st0" d="M102.9,28.1c0,0,0-0.1,0-0.1C102.9,28,102.9,28,102.9,28.1z"/>
						<path class="st0" d="M23.1,62.5C23.1,62.5,23.1,62.5,23.1,62.5C23.1,62.5,23.1,62.6,23.1,62.5z"/>
						<path class="st0" d="M21,66.4L21,66.4c-0.1-0.1-0.1-0.1-0.2-0.1L21,66.4z"/>
						<path class="st0" d="M86.1,20.5C86.1,20.5,86.1,20.5,86.1,20.5C86.2,20.5,86.1,20.4,86.1,20.5z"/>
						<path class="st0" d="M54.9,22.8c0.4,0.1-0.4,0.5,0.2,0.6C55,23.3,55.4,22.8,54.9,22.8z"/>
						<path class="st0" d="M111.8,37.3c0,0-0.1-0.1-0.1-0.1C111.7,37.3,111.7,37.3,111.8,37.3z"/>
						<path class="st0" d="M55,23.3L55,23.3L55,23.3C55.1,23.4,55.1,23.3,55,23.3z"/>
						<path class="st0" d="M78.2,19.5c0,0.1,0,0.1,0.1,0.1C78.2,19.6,78.2,19.6,78.2,19.5z"/>
						<path class="st0" d="M84,20.7l-0.1-0.1C83.9,20.6,83.9,20.6,84,20.7z"/>
						<path class="st0" d="M75.1,19.7c-0.1,0-0.1-0.1-0.2,0c0,0,0,0,0,0C74.9,19.7,75,19.7,75.1,19.7z"/>
						<path class="st0" d="M71.9,19.8C71.9,19.8,72,19.8,71.9,19.8c0.1,0,0.1,0,0.2,0L71.9,19.8z"/>
						<path class="st0" d="M25.8,53.6c-0.1,0-0.2,0-0.3,0C25.7,53.7,25.6,54.2,25.8,53.6z"/>
						<path class="st0" d="M111.9,37.3c-0.1,0-0.1,0-0.2,0L111.9,37.3C111.9,37.3,111.9,37.3,111.9,37.3z"/>
						<path class="st0" d="M74.9,21.9l-0.5,0C74.6,21.9,74.7,21.9,74.9,21.9z"/>
						<path class="st0" d="M38.3,35.8L38.3,35.8C38.3,35.8,38.3,35.8,38.3,35.8z"/>
						<path class="st0" d="M73,22c-0.1-0.1-0.2-0.2-0.3-0.2c0,0,0,0-0.1,0.1L73,22z"/>
						<path class="st0" d="M25.5,53.7L25.5,53.7L25.5,53.7z"/>
						<path class="st0" d="M25,56.9c0.2-0.4-0.3-0.3-0.4-0.5c0.1-0.6,0.3-0.2,0.6-0.3c0-0.4-0.2-0.7-0.1-1c0.1,0,0.1,0,0.2,0
							c-0.1-0.4,0.4-1,0.2-1.5c0,0,0.1,0,0.1,0c-0.2,0-0.4-0.1-0.5-0.1c0.1-0.2-0.1-0.5,0.2-0.4c-0.1,0.1,0,0.2,0.1,0.2l0-0.2
							c0.4,0,0,0.3,0.2,0.4c0.1-0.4,0-1,0.2-1.3c0.3,0.1-0.2,0.8,0.3,0.5l-0.3,0.4c0.6-0.1-0.2,0.3,0.5,0.2c0.4-0.6,0.1-0.8,0.5-1.3
							c-0.1-0.2-0.3-0.1-0.4-0.3c0.1-1,1.1-0.3,1-1.1c-0.1-0.3-0.5-0.5,0-0.9l0.3,0.3c0.3-0.5-0.3-0.6,0.2-1.1
							c0.1,0.2-0.1,0.5,0,0.4c0.5-0.2,0-0.4,0.1-0.7l0.3,0.1c0.3-0.6,0.5-1.4,0.8-2.1c0.1,0.1,0.1,0.3,0.3,0.2
							c0.3-0.9,1.1-1.7,1.8-2.4l0-0.5c0.1-0.1,0.2,0,0.2,0.1c0.3-0.2-0.1-0.1-0.1-0.3c0.1-0.2,0.3-0.1,0.3,0
							c0.2-0.7,0.6-1.8,1.3-2.1l0,0.2c0.4-0.3-0.1-0.8,0.4-1l0,0.1c0.8-0.8,1.4-1.9,2.3-2.3c-0.2-0.4,0.9-0.7,0.5-1.1
							c0.6-0.3,0.6-0.1,1.4-0.6c0.2-0.2,0-0.5,0.2-0.8l0.2,0.2l0.1-0.5l0.4,0.1l0.2-0.2c-0.1,0.1-0.3,0.1-0.3,0
							c0.2-0.4,1-0.5,1.1-0.4l0.6-0.9c0.1,0.1,0,0.3-0.1,0.4c0.2-0.6,0.3,0.2,0.5-0.4c-0.1,0-0.1-0.2-0.1-0.2c0.3,0,0.7-0.4,1-0.7
							l0.1,0.2c0.6-0.4,1.1-1.2,1.9-1.6c-0.3,0.1-0.5-0.2-0.3-0.4l0.3,0.2c0-0.3-0.3,0.1-0.2-0.3c0.3-0.2,0.4,0.2,0.3,0.4l0.3-0.3
							c0.1,0.1,0,0.2,0.1,0.3c0-0.3,0.7-0.1,0.7-0.5l0.1,0.1c0.7-0.5,1-0.8,1.5-1.2c-0.1-0.2,0.1-0.3,0.2-0.7
							c0.5-0.2,1.1-0.3,1.6-0.6c0.3-0.3,0-0.3,0.1-0.5c0.2,0.2,0.7-0.1,0.5,0.2c0.6-0.4,0.8-0.5,1.5-1.2c-0.1,0-0.3,0-0.3-0.1
							c0.1-0.1,0.4-0.1,0.4,0l0,0c0.7-0.9,2.5-0.4,3.1-1.2l0,0l0.7-0.6c0.4-0.1-0.1,0.3,0.2,0.3c0.7-0.8,1.4-0.5,2-1.1
							c0.8,0.5,2-0.7,2.9-0.5l-0.1-0.2c0.1-0.2,0.3,0,0.4,0c-0.1-0.1-0.3-0.1-0.2-0.2c1.6-0.8,3.6-0.7,5.4-0.9
							c0.7-0.1,0.2-1,1.1-0.7L65,22.7c1.3-0.6,2.7-0.3,4-0.8c-0.1,0.1-0.1,0.2-0.2,0.2c0.3,0.2,1-0.1,1-0.3c0.2,0,0.1,0.2,0.2,0.3
							c0.3,0.1,0.7-0.4,0.8-0.1c0,0-0.1,0.1-0.1,0.1c0.2-0.1,0.8,0,0.7-0.3c0.5,0.1,0.9-0.1,1.3,0c0.3-0.3,0.8,0.1,0.9-0.3
							c0,0.5,0.9,0.3,1.2,0.1c-0.1,0.1,0.3,0.1,0.1,0.3c0.4,0,0.7-0.1,0.6-0.3c0.6,0.6,1.3-0.3,1.7,0.4c1.1-0.2,2.1-0.3,3-0.3
							c-0.1,0.4-1.1,0-1.1,0.4c0.5-0.1,0.8-0.2,1.2-0.2c0.4,0,0.7-0.1,1.2,0.1c0.2,0.1-0.2,0.2-0.2,0.2c0.9,0,1.7,0.3,2.6,0.2
							c0,0-0.1,0.1-0.2,0.1c0.2,0,0.4,0.1,0.4-0.1l-0.2,0c-0.2-0.3,0.7-0.5,0.8-0.7c-0.4,0.5,0.8,0.3,0.2,0.9c0.1,0,0.3-0.1,0.3-0.2
							c0.1,0.1,0.2,0.2,0,0.3c0.6,0,0.4-0.2,0.9-0.1c0,0.1-0.1,0.1-0.2,0.2c0.3-0.1,0.6-0.2,1,0c0,0.1,0,0.1-0.1,0.1
							c0.7,0.2,1.4-0.2,2.1,0.2c-0.4,0.4,0.2,0.2,0.2,0.6l0.5,0l-0.1-0.2c0.4,0.1,0.8-0.1,1.1,0.2c-0.1,0-0.2,0-0.3,0.1
							c0.2,0,0.5,0.1,0.7,0.2l-0.3-0.3c0.4,0,0.1-0.5,0.6-0.2c-0.1,0,0.4,0.1,0.5,0.4l0,0c0.2,0,0.4-0.1,0.7,0.1
							c0,0.1-0.2,0.4-0.2,0.5c0.3-0.2,0.9,0.2,1.2,0c-0.1,0-0.2,0.2-0.2,0.3l0.2-0.2c0.1,0.1,0.1,0.2,0.1,0.3c0.5,0.2,0-0.5,0.5-0.1
							c-0.1,0,0,0-0.2,0c0.6,0.3,1.3,0.3,1.7,0.7c0,0.4-0.5-0.1-0.5,0.2c0.8,0.3,1.8,0.4,2.5,0.8l-0.1-0.1c0.3-0.4,0.4,0.5,0.9,0.5
							c-0.1,0-0.3,0.2-0.2,0.2c0.5,0.3,1.1,0.4,1.9,0.7l-0.2,0.1c0.2,0.3,0.7,0.5,1,0.8c0.2-0.1,0.3,0.1,0.3-0.2
							c0.5,1.3,2,0.8,2.5,1.9c-0.1-0.1-0.3-0.1-0.2,0c0.3,0.1,0.5,0.2,0.8,0.4c0.1-0.2,0-0.2-0.1-0.4c0.2-0.1,0.4,0,0.6,0.1
							c-0.4-0.1-0.2,0.3-0.2,0.5c0-0.1,0.1-0.1,0.1-0.2c0.1,0.6,0.3-0.3,0.6,0.3l-0.1,0.1c0.2,0.1,0.5,0.1,0.7,0.3
							c-0.1,0.3-0.3,0-0.4,0.1c0.3,0.2,0.8,0,0.9,0.4c-0.2,0-0.3-0.2-0.5-0.2c0.1,0.5,0.2,0.4,0.3,0.6l0,0l0.4,0.5l-0.1-0.2
							c0.8-0.3,0.8,0.4,1.5,0.4c-0.7,0-0.2,0.1-0.5,0.3c0.1,0.2,0.2,0.4,0.1,0.4c0.4,0,0.2,0.4,0.7,0.4c-0.1,0.1,0.2,0.2,0,0.3
							c0.3,0.2,0.1-0.2,0.2-0.3c0.6,0.1,0.7,1.2,1.5,1.4c0.6,0.3,0.9,0.2,1.5,0.5c0,0.3-0.4,0.1-0.4,0.1c0.1,0.3,0.4,0.5,0.7,0.6
							c-0.1,0-0.1,0.1-0.1,0.3c0.2,0.2,0.4-0.1,0.5,0.2c-0.1,0-0.3,0.1-0.5,0.1c0.3,0.1,0.6,0.3,0.9,0.4c-0.1,0.2-0.3,0-0.5,0
							c0.3,0.2,0.7,0.6,1,0.5l-0.1-0.2c0.1,0.1-0.1,0.2-0.2,0.2c-0.4-0.1-0.2-0.4-0.2-0.5l0.2,0.1c0.3-0.6-0.7-0.6-1-0.9l0.4-0.2
							l-0.6-0.1c0-0.1,0.1-0.4,0.3-0.2c-0.1-0.4-0.3-0.1-0.4-0.5c0,0,0-0.1,0.1,0l-0.3-0.1c0.1,0,0.2-0.2,0.3-0.1
							c-0.3-0.6-0.9-0.4-0.8-0.8l0.1,0c-0.7-0.5-0.3,0.2-0.9,0l0.2-0.8l-0.3,0.2c-0.1-0.1-0.2-0.2-0.1-0.3c-0.4-0.1-0.1,0.1-0.3,0.2
							c-0.1-0.5-0.9-0.7-0.6-1.1c-0.3,0.1,0.2,0.4-0.3,0.2c0.3-0.5-0.4-0.3-0.6-0.7c0.3-0.1,0.4,0.2,0.3-0.2
							c-0.5,0.2-0.5-0.5-0.8-0.6c-0.2,0.3-0.6-0.3-1.1-0.5c0.1-0.1-0.6-0.8-0.9-1.2l0,0c-0.3,0.2-0.6-0.1-1-0.3
							c0.1-0.2,0.2-0.2,0.5-0.2l-0.3-0.2c-0.1,0-0.2,0-0.5-0.1l0.2-0.2c-0.4-0.2-1-0.2-1.3-0.7c-0.2,0.2,0,0.8-0.6,0.7
							c0.1-0.1,0.2-0.3,0.3-0.3c-0.1,0-0.2,0-0.3-0.1l0.3-0.1c-0.2-0.2-0.2,0.1-0.4,0c0.1-0.2-0.1-0.2,0.1-0.3
							c0.1,0,0.1,0.2,0.2,0.1c-0.2-0.2-0.4-0.4-0.4-0.6c0,0.1-0.1,0.2-0.3,0.2c-0.4-0.2,0-0.3-0.2-0.5c-0.2,0.1-0.3-0.2-0.5,0
							c-0.1-0.1-0.1-0.2-0.1-0.3c-0.3,0-0.9-0.5-0.9-0.1l0,0c0,0,0,0,0,0l0,0l0,0c-0.8-0.2-1.3-0.9-2-1.1l0-0.1
							c-0.5-0.1-0.9-0.4-1.3-0.3c-0.1-0.1-0.2-0.3-0.1-0.4c-0.3-0.1-0.4,0-0.8-0.4c0.4,0,0-0.2,0.4,0c-0.4-0.3-0.4-0.5-0.9-0.4
							c0.3-0.2-0.2-0.4-0.4-0.5l0.2,0.3c-0.2-0.1-0.4-0.2-0.6-0.3l0.2-0.3c-0.7-0.7-1.8,0-2.2-0.8c-0.3,0.1,0.4,0.3,0.1,0.5
							c-0.4-0.2-0.6-0.8-0.8-0.8c-0.5-0.4-0.7,0.3-1.2-0.1c0,0.1,0,0.5-0.5,0.4c-0.4-0.2-0.3-0.7-0.1-0.7c0.1,0,0.1,0.1,0.1,0.1
							c0.1,0,0.3,0,0.2-0.2l-0.1,0.1c-0.2-0.2-0.7-0.4-0.5-0.5c-0.3,0-0.2,0.1,0,0.3c-0.5-0.3-0.8-0.2-1.3-0.5
							c0.1,0.1,0.1,0.2,0,0.2c-0.8-0.4-0.4,0.1-1,0c-0.3-0.3,0.2-0.4-0.4-0.4c-0.3-0.2,0-0.3,0.2-0.4c-0.6,0.1-0.9-0.4-1.2-0.5
							l0.3,0c-0.2,0-0.3,0-0.4-0.1l0.1,0.3c-0.1-0.1-0.3-0.1-0.2-0.2c-0.2,0.1,0,0.4-0.3,0.5c-0.2-0.2-0.6,0-0.7-0.4
							c0.6,0.3,0-0.3,0.6-0.2c-0.1,0-0.2,0-0.4-0.1c0,0,0-0.1,0.1-0.1c-0.6-0.4-0.4,0.3-1,0.2c0.1-0.2-0.1-0.4-0.2-0.3
							c0.3,0,0.1,0.3-0.2,0.4c-0.4-0.2-0.5,0-0.7,0l0.2,0.1c-0.1,0.2-0.3,0.1-0.6,0.1c0-0.1,0.3,0,0.2-0.1c-0.4,0.3-0.7-0.4-1.2-0.3
							c-0.2-0.2,0-0.3-0.1-0.4c-0.5,0.1-0.5-0.3-1.1-0.2c0.1,0.3,0.2,0.2-0.2,0.4l0.9,0l-0.6,0.2c0.3,0,0.6-0.1,0.7,0
							c-0.3,0.1-0.3,0.1-0.2,0.3c-0.3-0.4-0.7,0.1-1.1-0.2l0.1-0.6c-0.6-0.4-1.2,0.2-2,0l0.3,0.1c-0.1,0.2-0.5,0-0.8,0.1
							c0-0.2-0.1-0.3-0.2-0.4c0,0.1-0.6-0.1-0.7,0.3l-0.4-0.3c-0.7-0.2-0.8,0.5-1.4,0.4c0.2-0.2-0.1-0.4,0.3-0.5
							c-0.2,0-0.4-0.1-0.4,0.1c-0.1-0.1-0.6,0.2-0.8,0.1c-0.1,0.1-0.1,0.3-0.4,0.3c0,0,0-0.1,0-0.1c0,0.1-0.4,0.1-0.2,0.4
							c-0.7-0.6-1.8,0.1-2.4-0.4c-0.5,0.1-1,0.2-1.4,0.2c0-0.1,0-0.1,0.1-0.1c-0.6-0.2-0.3,0.6-1,0.4c-0.4-0.3,0.3-0.2,0.1-0.3
							c-0.1-0.6-0.8,0.2-1.3-0.1l0.1-0.1c-0.4-0.2-0.8,0.3-1.4,0.4c0,0,0-0.1,0-0.1c-0.3,0.4-1,0.6-1.5,0.7c0.1-0.3,0.2-0.2,0.1-0.4
							c-0.2,0.1,0.1,0.4-0.3,0.5c-0.2-0.1-0.5-0.2-0.6-0.4c0.1,0,0.3-0.1,0.4-0.1c-0.3-0.3-0.6,0.1-0.8,0.1l0-0.2
							c-0.7,0.2-0.6,0.6-1.3,0.7l0.1,0.1c-0.3,0.5-0.4-0.1-0.7,0.2l-0.2-0.4c-0.2,0.2-0.8,0.6-1.3,0.7c0.2-0.3,0.7-0.6,1-0.9
							c-0.3,0.1-0.9,0.2-1,0.4c0.1-0.1,0.2-0.2,0.3-0.1c-0.2,0.4-0.6,0.6-1.1,0.7c-0.1-0.8-1.4,0.2-1.9-0.2
							c-0.8,0.6-1.8,0.5-2.9,0.8c0.6,0.4-0.3,0.1,0,0.7c-0.2,0.1-0.3,0.1-0.4,0.1c-0.3,0-0.6,0-0.8,0c-0.2-0.1,0.2-0.2,0.1-0.3
							c-0.5,0.2-0.3-0.1-0.7-0.1c0.2,0.2-0.1,0.4-0.4,0.4l0.5,0.1c-0.6,0.6-0.8-0.2-1.4,0.4l0.2-0.3c-0.3,0.3-1.4,0.6-1.5,1.2
							c-0.1,0-0.3-0.1-0.1-0.3c-1,0.3-1.7,1.4-2.5,1.5l0-0.2c-0.1,0.1-0.1,0.4-0.4,0.4c0-0.1,0-0.2-0.1-0.1
							c-0.1,0.1-0.3,0.5-0.5,0.5l0.1-0.2c-0.9,0.3-1.1,1.1-1.7,1.5c-0.2-0.4-0.9-0.1-1.3,0.1l0-0.1c-0.9,0.6-1.3,1.4-2.1,2.1
							c-0.4,0-0.9,0.3-1.4,0.6c-0.5,0.3-1,0.8-1.4,1c0.2,0,0.2,0.3,0.1,0.4c-0.2,0.1-0.3,0.7-0.5,0.3l0.1,0c-0.4-0.2-0.7,0.2-1,0.5
							l0.3,0.4c-1.3,0.1-1.8,1.9-2.6,1.8c-0.1,0.3-0.3,0.5-0.4,0.7l-0.2-0.2c-0.5,0.4-0.8,0.6-1.3,1.3l0-0.3c-0.3,0.3,0.2,1-0.1,1.3
							l-0.4-0.2c-0.5,0.6-1.3,1-1.6,1.9c0,0-0.1-0.1,0-0.3c-0.3,0.3-1.1,1-0.6,1.2c-0.3-0.2-0.5,0.6-0.7,1.1l-0.2-0.2
							c0.1,0.5,0.1,0.6-0.1,1.1c-0.1,0.1-0.2,0-0.1-0.1c-0.4,0.2,0,0.4-0.4,0.7l0-0.3c-0.3,0.3-0.2,0.4-0.1,0.7
							c-0.1,0.3-0.5,0.6-0.7,0.5c0.1,0.1,0.1,0.4-0.1,0.6c-0.1,0-0.1-0.1-0.1-0.2c-0.5,0.5-0.3,1-0.8,1.3c-0.1,0-0.1,0-0.2,0
							c0.3-0.5,0.6-0.8,0.6-0.8c-0.2-0.1-0.5,0.2-0.6-0.3c0,0.4,0,1.2-0.3,1.5c0,0-0.1,0-0.1,0l0-0.1c-0.1,0.1-0.1,0.2-0.1,0.3
							c-0.1,0.1-0.2,0.2-0.3,0.3c-0.2-0.1-0.4,0.4-0.5,0.6c0.3,0.1,0.1,0.4,0.4,0.2c0,0,0-0.1,0.1-0.2c0,0,0-0.1,0-0.1l0,0
							c0.1-0.1,0.2-0.3,0.3-0.5c0,0.2,0,0.4-0.2,0.6c0.1,0.2,0.2,0.4,0.2,0.5c-0.5,0.1-1,0.5-1.2,0.5c-0.2,0.7-0.7,1.5-0.4,2.1
							c0,0.2-0.2,0.1-0.3,0.2c0-0.1,0.1-0.2,0-0.3c0,0.4-0.5,1.1-0.2,1.3c-0.4,0.4-0.2-0.4-0.4,0.2l-0.1-0.1c-1.1,1,0,2.3-1.2,3.4
							c0.1-0.1,0.1-0.1,0.2-0.1c-0.9,1.5-0.8,3.3-1.8,4.8c-0.2,0.4,0,0.5,0.1,0.9l-0.3,0l0.2,0.6c0.1,0.7-1,1-0.7,2l0.2-0.1
							c-0.1,0.3-0.1,1-0.3,0.9c0,0,0.2,0.1,0.1,0.2l-0.2,0c0,0.3,0.1,0.5,0.1,0.8c-0.2,0.6-0.6-0.2-0.8,0.7c0,0.3,0.3,1,0.4,0.9
							c0-0.1,0.2-0.3,0.3-0.3l0,0.3c0.5,0.1,0.9,0.4,1.3-0.2l-0.2-0.5l0.2-0.1l-0.1,0.4c0.2-0.2,0.1-0.4,0-0.6
							c0.1,0,0.2-0.1,0.3-0.2l-0.4-0.6c0.2,0,0.3,0.3,0.5,0c-0.2-0.3-0.4,0.1-0.5-0.3c0.3-0.2,0.4-0.1,0.3-0.4
							c0.1,0,0.2,0.1,0.2,0.2c-0.1-0.3,0.1-0.7-0.1-0.8c0.3-0.2,0.1-0.8,0.5-0.7c-0.1-0.1-0.2-0.5-0.2-0.7c0.4,0.5,0.2-0.8,0.8-0.6
							c-0.4-0.4,0.1-1.1,0-1.7c0,0,0.1,0.1,0,0.2c0.1-0.3,0.3-0.3,0.4-0.5c-0.4-0.1-0.3-0.6-0.5-1c0.5-0.2,0.4,0.4,0.8,0.3
							c-0.3-0.1-0.1-0.7-0.4-0.7c0.3-0.2,0.2-0.2,0.5-0.2c-0.4-0.2,0-0.3-0.2-0.6c0.4-0.3,0.5,0,0.5-0.4C25,56.5,25,56.9,25,56.9z
							 M28.8,46.8L28.8,46.8c0,0.1-0.1,0.2-0.1,0.2C28.8,46.9,28.8,46.9,28.8,46.8z M29.3,46c-0.1,0.1-0.2,0.2-0.2,0.3
							c-0.1,0-0.2-0.1-0.1-0.2C29,46.2,29.2,46.1,29.3,46z M26.6,46.7c0-0.1,0.1-0.2,0.2-0.2C26.8,46.6,26.7,46.7,26.6,46.7l0.1,0.1
							C26.7,46.8,26.6,46.7,26.6,46.7z"/>
						<path class="st0" d="M26.8,47.1C26.8,47.1,26.8,47.1,26.8,47.1C26.8,47.1,26.9,47.1,26.8,47.1L26.8,47.1L26.8,47.1z"/>
						<path class="st0" d="M100.9,27.3L100.9,27.3C100.9,27.3,100.9,27.3,100.9,27.3C100.9,27.3,100.9,27.3,100.9,27.3z"/>
						<polygon class="st0" points="37.6,36.5 37.6,36.5 37.6,36.6 						"/>
						<path class="st0" d="M104.7,30.9C104.7,30.9,104.7,30.9,104.7,30.9C104.7,31,104.7,30.9,104.7,30.9z"/>
						<path class="st0" d="M106.4,32.3l0.2,0.3C106.5,32.4,106.5,32.3,106.4,32.3z"/>
						<path class="st0" d="M107.7,33.4c0,0,0.1,0,0.1-0.1l0,0L107.7,33.4z"/>
						<path class="st0" d="M83.7,22.5C83.7,22.5,83.7,22.5,83.7,22.5C83.5,22.5,83.6,22.5,83.7,22.5z"/>
						<path class="st0" d="M91.6,23.9c-0.1,0-0.2,0-0.3,0C91.4,24,91.5,24.1,91.6,23.9z"/>
						<polygon class="st0" points="75,21.9 75,21.9 74.9,21.9 						"/>
						<path class="st0" d="M90.9,23.8c0.1,0.1,0.2,0.1,0.3,0.1C91.2,23.9,91,23.8,90.9,23.8z"/>
						<path class="st0" d="M112.8,38.5L112.8,38.5C112.9,38.6,112.9,38.6,112.8,38.5L112.8,38.5z"/>
						<path class="st0" d="M112.9,38.6L112.9,38.6C113,38.6,112.9,38.5,112.9,38.6z"/>
						<path class="st0" d="M113.2,38.7l-0.2-0.1C113,38.6,113.1,38.7,113.2,38.7z"/>
						<path class="st0" d="M111.4,36.8L111.4,36.8C111.3,36.9,111.3,36.9,111.4,36.8z"/>
						<path class="st0" d="M110.9,36.4c0.1,0.1,0.1,0.4,0.3,0.5l0.1,0C111.1,36.9,111.1,36.4,110.9,36.4z"/>
						<path class="st0" d="M109.7,33.5L110,34c0-0.2,0-0.4,0.2-0.2C109.9,33,110.2,34.1,109.7,33.5z"/>
						<path class="st0" d="M108.4,32.2c0.3,0.2,0.1-0.1,0.1-0.2C108.3,32,108.3,32,108.4,32.2z"/>
						<path class="st0" d="M97.5,25.2l0.1-0.2C97.4,24.9,97.6,25.1,97.5,25.2z"/>
						<polygon class="st0" points="94.7,25.4 94.8,25.6 95,25.4 						"/>
						<polygon class="st0" points="94,23.2 94.1,23.2 93.7,23.1 						"/>
						<path class="st0" d="M72.5,19.5l0.1,0.3C72.7,19.8,72.7,19.4,72.5,19.5z"/>
						<path class="st0" d="M63.1,20.9c-0.1-0.1-0.4-0.2-0.5,0C62.8,20.9,63,21,63.1,20.9z"/>
						<polygon class="st0" points="37.8,33.1 37.8,32.8 37.6,33.1 						"/>
					</g>
				</g>
			</g>
		</g>
	</g>
	<g>
		<g>
			<g>
				<g>
					<g>
						<path class="st0" d="M128.5,121.4c-0.1,0.2,0.1,0.3,0.5-0.3l0-0.6L128.5,121.4z"/>
						<path class="st0" d="M131.8,118.3c0.3-0.7,0.6-1.6,0.1-1.4c-0.2,0.8-0.4,0.9-0.6,1.8c-0.4,0.5-0.8,0.8-0.8,0.7
							c-0.1,0.2-0.7,0.7-0.8,1.2c0.7-0.5,1.5-1.3,2-2.4C131.9,118,131.8,118.2,131.8,118.3z"/>
						<path class="st0" d="M145.4,56.7l0.1,0.4C145.4,57,145.4,56.9,145.4,56.7z"/>
						<path class="st0" d="M125.9,21.7c0.2,0.2,0.3,0.3,0.4,0.3C126.1,21.8,125.9,21.6,125.9,21.7z"/>
						<path class="st0" d="M121,16.8c0.1,0.1,0.2,0.2,0.3,0.3C121.2,16.9,121.1,16.8,121,16.8z"/>
						<path class="st0" d="M145.4,56.7l-0.2-1.1C145.1,55.6,145.3,56.2,145.4,56.7z"/>
						<path class="st0" d="M136.1,110.5c-0.1,0.2-0.2,0.4-0.2,0.5C136,110.9,136.1,110.7,136.1,110.5
							C136.1,110.5,136.1,110.5,136.1,110.5z"/>
						<path class="st0" d="M147.7,74.4l0,0.3c0,0.1,0.1,0.2,0.1,0.3L147.7,74.4z"/>
						<path class="st0" d="M146.4,88.1c0.1-0.3-0.2-0.5-0.3-0.6c0.1,0.2,0.1,0.4,0.1,0.7C146.2,88.2,146.3,88.2,146.4,88.1z"/>
						<path class="st0" d="M138.6,108.4l-0.1,0.4C138.5,108.7,138.6,108.5,138.6,108.4z"/>
						<path class="st0" d="M147.2,64.6c0,0,0.1-0.1,0.1-0.1C147.2,64.5,147.2,64.5,147.2,64.6z"/>
						<path class="st0" d="M116.7,131.5C116.7,131.5,116.7,131.5,116.7,131.5C116.7,131.4,116.7,131.4,116.7,131.5z"/>
						<path class="st0" d="M129.1,121.9l-0.1,0.2c0,0.1,0,0.1,0.1,0.1L129.1,121.9z"/>
						<path class="st0" d="M110.7,9.2C110.7,9.2,110.7,9.2,110.7,9.2C111,9.4,110.9,9.3,110.7,9.2z"/>
						<path class="st0" d="M9,38.1c0.8-1-0.7,2.1,0.5,0.4C9.3,38.7,10,36.7,9,38.1z"/>
						<path class="st0" d="M136.3,110.2c0.1-0.2,0.2-0.3,0.3-0.5C136.5,109.9,136.4,110.1,136.3,110.2z"/>
						<path class="st0" d="M9.5,38.6L9.5,38.6l0.1-0.2C9.6,38.5,9.5,38.5,9.5,38.6z"/>
						<path class="st0" d="M82.8,0.2c0.1,0.1,0.2,0.1,0.3,0.2C83,0.4,83,0.3,82.8,0.2z"/>
						<path class="st0" d="M103.7,6.4l-0.5-0.2C103.4,6.2,103.6,6.3,103.7,6.4z"/>
						<path class="st0" d="M71.4,0.2c-0.3,0-0.4,0-0.8,0c0,0,0.1,0,0.1,0C70.9,0.2,71.1,0.1,71.4,0.2z"/>
						<path class="st0" d="M59.7,1.5c0.1,0,0.1,0,0.2,0c0.1,0,0.2-0.1,0.4-0.1L59.7,1.5z"/>
						<path class="st0" d="M84.8,144.8c0.3,0,0.4,0.1,0.6,0.2C85.2,144.8,86.8,144.5,84.8,144.8z"/>
						<path class="st0" d="M136.3,110.6c0-0.1,0-0.2,0.1-0.4c-0.1,0.1-0.1,0.2-0.2,0.3C136.2,110.6,136.2,110.6,136.3,110.6z"/>
						<path class="st0" d="M71,2.4l-1.8,0.1C69.7,2.5,70.4,2.4,71,2.4z"/>
						<path class="st0" d="M13.7,112.9l0.3,0.3C13.9,113.1,13.8,113,13.7,112.9z"/>
						<path class="st0" d="M63.8,3.1c-0.3,0-0.7-0.1-1,0c-0.1,0-0.2,0.1-0.2,0.1L63.8,3.1z"/>
						<path class="st0" d="M85.4,145L85.4,145L85.4,145z"/>
						<path class="st0" d="M96.9,141.5c-1.6,0.6-0.7,0.6-0.9,0.9c-2,0.7-1,0-1.7,0c-0.6,0.2-1.1,0.5-1.6,0.7
							c-0.5,0.2-0.9,0.4-1.4,0.5c-0.1,0-0.3,0-0.1-0.1c-1.3,0.6-4,0.9-5.5,1.5c-0.1,0-0.2,0-0.2-0.1c0.3,0.1,0.4,0.3,0.3,0.5
							c-0.8,0.1-1.4,0.4-1.7,0.2c0.5-0.1,0.5-0.2,0.7-0.3l-0.8,0.2c-0.8-0.2,1.1-0.3,1.1-0.5c-0.8,0.2-1.6,0.4-2.4,0.6
							c-0.8,0.2-1.6,0.3-2.2,0.3c-0.3-0.3,2.8-0.4,1.2-0.5c0.6,0,1.3,0,1.9-0.1c-1.5-0.3,1.1-0.1-0.2-0.5c-1.2,0.1-1.9,0.2-2.6,0.3
							c-0.7,0.1-1.4,0.2-2.6,0.2c-0.5,0.2,0.2,0.3-0.3,0.5c-1.8,0.3-2.5,0.1-3-0.2c-0.6-0.2-1-0.4-2.3-0.2c-0.7,0.2-1,0.6-2.8,0.3
							l0.7-0.4c-2.4-0.2-1.4,0.5-3.9,0c0.5-0.1,1.9,0.1,1.5,0c-1.6-0.5-1.2,0.1-2.4,0l-0.2-0.4c-2.5-0.3-5.4-0.5-8.2-1.1
							c0.2-0.1,0.7,0,0.1-0.3c-1.8-0.3-3.6-0.9-5.4-1.5c-1.8-0.7-3.5-1.4-5-2.2l-1.3-0.2c-0.3-0.1-0.5-0.4-0.1-0.3
							c-1.2-0.7-0.1,0.1-0.8,0c-0.7-0.3-0.8-0.6-0.4-0.5c-2.3-0.7-6.3-2.6-8.2-4.2l0.5,0.2c-1.6-1.1-2.2-0.7-3.5-1.9l0.3,0.2
							c-3.4-2.5-7.2-5.4-9.2-8c-0.7-0.1-2.8-3.1-3.4-3c-1.4-2-0.9-1.5-2.9-4.3c-0.6-0.7-1.1-0.9-1.8-1.7l0.2-0.2l-1.2-1
							c-0.1-0.3-0.1-0.6-0.2-0.9l-0.6-0.8c0.2,0.4,0.4,0.8,0.3,0.8c-0.5-0.7-1-1.5-1.4-2.2c-0.3-0.7-0.5-1.3-0.5-1.4
							c-0.7-1.1-1.5-2.1-2.1-3.3c0.1,0,0.5,0.6,0.8,1c-1.2-1.7,0.1-0.5-1-2c0.1,0.3-0.2,0-0.3-0.1c-0.3-0.9-1.2-2.9-1.9-4.3l0.3,0.2
							c-1-2.7-2.3-5.6-3.2-8.7c0.2,1.1-0.2,1-0.5,0.1l0.2-0.5c-0.4-0.5,0.2,1-0.4-0.2c-0.3-1.2,0.2-0.9,0.4-0.2L4.2,91
							c0.1-0.1,0.2,0.2,0.3,0.3c-0.3-0.5-0.3-2.5-0.8-3.3l0.1-0.1c-0.2-0.8-0.3-1.5-0.4-2.1c-0.1-0.6-0.2-1.2-0.3-1.7
							C3,83,2.8,82,2.7,80.7c-0.3,0-0.3-1.1-0.6-1.8c0-1,0-2,0-3.1c0-1.1,0.1-2.2,0.1-3.4c-0.1-1.6-0.2-0.5-0.4-1.2
							c0.3-0.1,0.4-2.4,0.5-1.2c0-1.4,0.1-2.3,0.2-3.3c0-0.5,0.1-1,0.1-1.6c0.1-0.6,0.1-1.3,0.2-2.2c-0.2,0.4-0.3,0.8-0.3,0.6
							c0.1-0.6,0.3-1.4,0.4-1.3l0,0.2c0.1-2,0.8-4.2,1.5-6.3c0.3-1.1,0.7-2,1-3c0.2-0.5,0.3-0.9,0.4-1.4c0.1-0.4,0.2-0.8,0.3-1.2
							l0,0.2c0.3-1.1,0.5-2.1,0.9-3.2c0.6-1.4-0.2,0.9,0.4-0.1c0.2-0.9,0.5-1.6,0.8-2.3c0.3-0.7,0.6-1.3,0.9-1.9
							c0.6-1.2,1.2-2.3,1.8-3.6c0.4-0.4,0.9-1.1,1.4-1.8c0.5-0.7,1-1.7,1.6-2.5c0.6-0.9,1.1-1.8,1.7-2.6c0.6-0.8,1.2-1.5,1.7-2.1
							l-0.2,0c0.3-0.7,0.6-0.7,1-1.1c-0.2,0-0.7,0.6-0.4,0.1c4-5.3,9.5-10.1,15.1-13.8c2-1.4,0.6-1.6,3.5-2.9l-0.6,0.8
							c4.1-3.1,9-5,13.5-7C49,6.6,49,6.7,48.5,6.9c1.1-0.1,3.6-1.3,3.6-1.4c0.7-0.2,0.2,0.1,0.7,0.1c1-0.2,2.4-1.1,3-0.9
							c0.1,0-0.3,0.1-0.4,0.2c0.6-0.3,3.1-0.7,2.4-0.8c1.8-0.3,3.5-0.9,4.9-0.9c0.5-0.2,1.2-0.3,2-0.4c0.7-0.1,1.3-0.1,1.5-0.3
							c0,0.2,0.8,0.2,1.7,0.1c1-0.1,2.1-0.2,2.7-0.3c-0.4,0.2,1,0.1,0.6,0.3c1.3,0,2.6-0.1,2.3-0.4c2.5,0.5,5-0.3,6.3,0.5
							c4,0.1,7.7,0.5,11.2,1.3c-0.2,0.4-3.9-0.8-3.8-0.3c3.3,0.5,5.4,0.6,8.6,1.7c0.8,0.3-0.5,0-0.8,0c3.3,0.8,6.2,2.2,9,3.2
							c0,0-0.3-0.1-0.6-0.2c0.6,0.2,1.2,0.7,1.3,0.4l-0.5-0.2c-0.7-0.7,2.4,0.5,2.6,0.4c-0.6,0,0.1,0.4,0.6,0.8
							c0.6,0.4,1.1,0.7,0.2,0.7c0.4,0.2,0.8,0.3,0.8,0.1c0.5,0.3,0.6,0.5,0,0.3c1.9,0.9,1.4,0.4,3,1.4c-0.1,0.1-0.4-0.1-0.6-0.1
							c0.9,0.4,1.9,0.7,3.2,1.7c-0.1,0,0,0.2-0.4-0.1c1.2,0.8,2.3,1.3,3.3,2c1,0.7,2.1,1.3,3.3,2.4c-1-0.2,0.7,0.8,0.6,1.2
							c0.5,0.3,0.9,0.7,1.3,1l-0.4-0.6c1.1,1,2.2,1.6,3,2.6c-0.3-0.2-0.6-0.4-0.9-0.6c0.7,0.6,1.3,1.3,2,1.9l-1-1.2
							c1.2,0.9,0.2-0.4,1.5,1c-0.3-0.3,1,1,1.4,1.8l0,0c0.6,0.5,1.2,0.9,1.8,1.8c0.1,0.3-0.5,0.1-0.4,0.3c0.7,0.3,2.2,2.6,3,3.1
							c-0.2-0.2-0.4-0.1-0.4,0l0.6,0.3c0.3,0.6,0.4,0.7,0.2,0.7c1.2,1.7,0-0.8,1.3,1.3c-0.1-0.1-0.1,0-0.4-0.3
							c1.3,2,2.7,3.8,3.7,5.8c0,0.8-1.1-1.6-1-0.8c1.7,2.7,3.5,5.6,4.7,8.5l-0.2-0.6c0.6,0.2,0.6,2.2,1.4,3.6
							c-0.2-0.4-0.4-0.4-0.4-0.3c0.3,1,0.7,2,1.2,3.2c0.4,1.2,0.9,2.4,1.4,4l-0.2-0.4c0.2,1.3,0.7,3.2,0.9,4.6
							c0.2,0.4,0.3,1.1,0.4,0.6c0,4.2,1.5,7.9,1,11.6c0-0.4-0.2-1.1-0.2-0.7c0.1,1,0.1,2.1,0.2,3.2c0.2-0.2,0.1-0.4,0.3-1.1
							c0.1,0.4,0.2,1.3,0.2,2.1c-0.2-1.4-0.4,0-0.5,0.6c0.1-0.1,0.1,0.1,0.2,0.1c-0.5,1.6,0.5,0.3,0.1,2.5l-0.1-0.1
							c0,0.9,0.1,1.6,0,2.5c-0.3,0.4,0-0.9-0.2-1c-0.1,1.3,0.3,2.6-0.2,3.7c0-0.5,0.1-1.3,0.1-1.9c-0.4,1.2-0.4,1.4-0.6,2.3l0-0.1
							c-0.2,0.7-0.3,1.4-0.5,2.1c0.1-0.2,0.1-0.4,0.2-0.5c0.2,0.8,0.1,1.7-0.1,2.5c-0.1,0.4-0.2,0.9-0.3,1.4c-0.1,0.5-0.2,1-0.2,1.5
							c0.1-2.1-0.2-0.4-0.4-0.6c-0.2,0.5-0.5,1.3-0.5,1c0,1.1-0.6,1.6-0.7,3.1c-0.1,0-0.3,1-0.5,0.7c-0.3,1.3,0.3-0.2,0.3-0.1
							c-0.3,2.1-1.9,4.4-2.6,7.3c-0.4,1.2-0.6,1.9-0.8,2.6c-0.2,0.7-0.4,1.4-0.9,2.5c-0.5,0.6,0-0.7,0-0.7c-0.7,1.1-1.1,1.9-1.7,3
							c0.1-0.3-0.1-0.1-0.4,0.2c-0.5,0.8,0,0.7-0.8,1.8c0-0.2,0-0.6,0.2-1c-0.3,0.5-0.5,1-0.7,1.6c-0.3,0.5-0.5,1-0.8,1.5
							c-0.3,0.2,0.2-0.7,0.3-1.1c-0.7,1.1-1.8,2.9-1.8,3.4l0.6-0.6c-0.3,0.4-0.3,0.1-0.2-0.3c0.5-1.1,1-1.3,1.1-1.3l-0.4,0.7
							c0.5-0.2,0.9-0.9,1.4-1.8c0.5-0.8,0.8-1.8,1.3-2.6l0,0.8l0.6-1.7c0.3-0.3,0.6-0.4,0.2,0.4c0.8-1,0.4-1,1.1-1.8
							c0.1-0.1,0.1,0,0,0.1l0.5-1.1c0,0.2,0.4,0,0,0.6c0.6-0.9,0.9-1.7,1.2-2.4c0.2-0.7,0.4-1.2,0.7-1.5l-0.1,0.2
							c1.1-2.8-0.1-0.4,0.4-2.6l1.3-1.1l-0.2-0.4c0.1-0.3,0.3-0.9,0.4-0.7c0.2-1.2-0.2,0.1-0.2-0.6c0.4-0.7,0.7-1.6,1-2.5
							c0.2-0.8,0.5-1.5,0.8-1.6c-0.1-0.6-0.6,1.3-0.3-0.3c0.3-0.1,0.4-0.6,0.5-1.1c0.1-0.6,0.2-1.3,0.4-1.9c0.2,0.5-0.3,1.7,0.3,0.4
							c-0.1-0.5,0.1-1.1,0.3-1.8c0.2-0.7,0.5-1.4,0.5-1.9c-0.2-0.1-0.1-0.7,0.1-1.5c0.1-0.8,0.3-1.9,0.4-2.9
							c0.1,0.1,0.6-3.6,0.9-5.3l0.1,0.1c-0.4-0.4-0.1-2.2-0.2-3.5c0.2,0.1,0.3,0.3,0.4,1c0-0.4,0-0.8,0-1.3
							c-0.1-0.3-0.2-0.7-0.2-1.5l0.3,0.3c0-0.8-0.1-1.7-0.2-2.6c-0.1-0.9-0.1-1.9-0.2-3c-0.3-0.1-0.6,1.8-0.9-0.5
							c0.1-0.1,0.4-0.2,0.5,0.4c0-0.2-0.2-0.7-0.2-1.1l0.3,0.9c0-1-0.2-0.5-0.3-1.3c0.2,0,0.1-0.6,0.3-0.5c0,0.2,0,0.7,0.1,1
							c0-0.9,0-2,0.1-2.3c-0.1,0.1-0.3,0-0.4-0.6c-0.2-1.7,0.2-0.6,0.1-1.6c-0.2-0.4-0.2-1.5-0.5-1.4c-0.1-0.5,0-0.6,0.1-0.8
							c-0.2-0.4-0.3-1.4-0.5-2.2c-0.2-0.8-0.4-1.3-0.4-0.8l0,0.2c0,0,0-0.1,0-0.1c0,0,0,0,0,0l0,0c-0.2-0.7-0.4-1.4-0.6-2.1
							c-0.2-0.7-0.4-1.4-0.6-2.1c-0.3-1.4-0.8-2.9-1.3-4.2l0.1,0c-0.3-0.8-0.7-1.6-1-2.4c-0.4-0.8-0.7-1.6-1-2
							c-0.2-0.5-0.3-1.1-0.1-1c-0.6-1.1-0.7-1.2-1.5-3c0.8,1.1-0.1-0.5,0.7,1.1c-0.7-1.5-0.7-2-1.8-3.4c0.5,0.4-0.4-1.3-0.8-1.9
							l0.4,1.1c-0.5-0.8-0.9-1.4-1.2-2.1l0.5,0.2c-1.5-3.2-4-4.8-5.1-7.3c-0.8-0.6,1,1.6,0.3,1.1c-1-1.3-1.6-2.8-1.9-3.2
							c-1.3-1.7-1.7-1.2-3.2-2.9c0.1,0.3,0.1,0.7-1.2-0.4c-1.1-1.1-1-1.7-0.2-1.1c0.3,0.3,0.4,0.4,0.3,0.4c0.4,0.3,0.9,0.8,0.5,0.2
							l-0.2-0.1c-0.2-0.3-0.7-0.9-1.1-1.3c-0.4-0.4-0.7-0.7-0.4-0.6c-1-0.7-0.5-0.2,0.1,0.4c-1.4-1.5-2.3-2.2-3.9-3.6
							c0.2,0.3,0.4,0.6,0.1,0.4c-2.3-2.1-1.2-0.7-2.8-1.9c-0.8-0.9,0.6-0.1-1.2-1.2c-1-0.9,0-0.4,0.4-0.2c-1.7-1-2.9-2.2-3.7-2.8
							l0.9,0.5c-0.5-0.3-0.9-0.6-1.4-0.8l0.4,0.5c-0.5-0.3-0.9-0.6-0.9-0.7c-0.6-0.2,0.2,0.6-1,0.1c-0.3-0.3-0.8-0.5-1.3-0.8
							c-0.5-0.3-0.9-0.5-0.9-0.7c2.1,1.3-0.1-0.4,1.8,0.6c-0.4-0.2-0.8-0.4-1.3-0.8c-0.1-0.1,0.1,0,0.3,0c-2-1.4-1.1-0.2-3.3-1.4
							c0.4,0-0.4-0.6-0.7-0.7c0.9,0.4,0.3,0.5-0.6,0.2c-1.4-0.8-1.6-0.7-2.3-1l0.8,0.4c-0.4,0-1.1-0.3-2.1-0.7c0-0.2,1,0.3,0.6,0.1
							c-0.6-0.1-1.2-0.4-1.9-0.8c-0.7-0.3-1.4-0.7-2.2-0.9c-0.7-0.4,0-0.3-0.6-0.7c-1.9-0.4-1.9-0.9-3.9-1.3
							c0.5,0.4,0.6,0.3-0.8,0.2c1.1,0.2,2.1,0.5,3.2,0.8l-2.1-0.3c0.9,0.3,2,0.5,2.6,0.7c-1-0.1-0.9-0.1-0.5,0.2
							c-0.6-0.4-1.2-0.5-1.9-0.7c-0.7-0.1-1.4-0.2-2.1-0.6L93,2.3c-1.1-0.5-2.2-0.6-3.3-0.8c-1.1-0.2-2.4-0.3-3.9-0.6l1,0.3
							C86.4,1.4,85,0.9,84,0.9c0.1-0.2-0.5-0.3-0.9-0.5c0,0.1-2.2-0.3-2.5,0.1l-1.3-0.4c-1.2-0.2-1.9,0-2.6,0.1
							c-0.7,0.1-1.4,0.2-2.6,0.2c0.7-0.2-0.4-0.4,1.2-0.5c-0.8,0-1.5,0-1.5,0.1c-0.5-0.1-2.2,0.3-2.9,0.1c-0.3,0.1-0.4,0.3-1.3,0.4
							c-0.1,0,0-0.1,0-0.1c0,0.1-1.4,0.2-0.6,0.4c-1.2-0.3-2.9,0-4.6,0.2c-1.6,0.3-3.2,0.5-4.3,0.5c-1.7,0.4-3.7,0.9-5.2,1.3
							c0.1-0.1,0-0.1,0.3-0.1c-2.1,0.4-1.1,0.9-3.5,1.4c-1.3,0.1,1.2-0.6,0.4-0.4c-0.5-0.5-2.8,1-4.5,1.3l0.4-0.2
							C46.5,5.1,44.9,6.1,43,7c0,0,0.1-0.1,0-0.1c-0.6,0.4-1.5,1-2.4,1.6c-0.9,0.6-2,1.1-2.8,1.7c0.4-0.5,0.7-0.6,0.3-0.6
							c-0.8,0.5,0.4,0.2-1.1,1.2c-0.6,0.2-1.7,0.7-2,0.6c0.5-0.3,0.9-0.6,1.4-0.9c-0.9,0.1-1.9,1.2-2.6,1.6l0-0.2
							c-1.1,0.7-1.6,1.2-2,1.7c-0.5,0.5-1,0.9-2.1,1.8l0.3-0.1c-0.9,1.2-1.1,0.6-2.1,1.8l-0.6,0c-0.4,0.3-1,1-1.6,1.7
							c-0.3,0.4-0.7,0.7-1,1.1c-0.3,0.4-0.7,0.7-1,1.1c0.5-0.9,2-2.4,2.9-3.4c-0.8,0.7-2.5,2.2-2.8,2.8c0.3-0.3,0.6-0.7,0.9-0.9
							c-0.4,0.5-0.8,1.1-1.3,1.7c-0.5,0.6-1.2,1.2-1.8,2c-0.3-0.8-3.7,3.6-5,4.4c-2,2.9-4.3,5.5-6.4,9c1.3-0.9-0.6,1,0.1,1.1
							c-0.5,0.8-0.6,1.2-0.7,1.2l-1.7,2.4c-0.5,0.5,0.3-0.9,0.1-0.8c-1,1.8-0.6,0.7-1.4,1.8c0.3-0.2,0,0.8-0.6,1.8l1-1.4
							c-1,2.8-1.5,2.1-2.3,4.9l0.2-0.9c-0.5,1.4-1.9,5.3-1.8,6.8c-0.1,0.2-0.4,0.5-0.3-0.1c-1.1,3.5-1.4,7.9-2,10.6l-0.1-0.3
							c0,0.7,0.1,1.2-0.1,2c-0.1-0.1-0.1-0.3-0.2,0c0,0.4,0.1,1.8-0.1,2.7l-0.1-0.8c-0.3,1.7-0.2,3.1-0.1,4.4
							c0.1,1.3,0.3,2.5,0.4,3.9c-0.4,0-0.5,2.8-0.4,4.2l-0.1,0C0.1,83.9,1,86.7,2,90.4c0,2.4,1.9,7.8,3.1,11.3
							c-0.1-0.6,0.4,0,0.6,0.6c0.2,0.9,1.3,2.1,0.8,2.2l-0.1-0.3c-0.1,0.8,0.7,2.4,1.4,3.7l0.6,0c0.5,1.8,1.8,3.9,3,5.8
							c0.6,0.9,1.2,1.8,1.8,2.5c0.5,0.7,0.9,1.4,1.1,1.9c0.6,0.7,1.3,1.5,2,2.1l-0.3,0.1c0.8,1,1.3,1.7,2,2.5
							c0.7,0.7,1.4,1.6,2.5,2.7l-0.6-0.3c1.2,1.3,2.1,1,3.3,2.1l0.1,0.6c1.1,1,2.2,2.1,3.3,3.1c0.6,0.5,1.1,1,1.8,1.5
							c0.6,0.4,1.3,0.9,1.9,1.2c-0.1,0-0.2,0.1-0.6-0.2c1.1,0.9,4.4,3.4,4.3,2.6c-0.2,0.4,2.6,1.7,4.1,2.3l-0.4,0.1
							c1.4,0.3,1.5,0.3,3.2,1.1c0.4,0.2,0.3,0.4-0.2,0c1.3,0.8,1.2,0.3,2.8,1.2l-0.7-0.1c1.4,0.7,1.3,0.6,2.2,0.7
							c0.9,0.3,2.7,1.2,2.8,1.5c0.3-0.1,1.1,0,2,0.4c0.1,0.1-0.2,0.1-0.4,0c1.2,0.5,2.1,0.8,3,0.9c0.9,0.2,1.6,0.4,2.4,0.7
							c0,0.1,0.1,0.2,0.3,0.2c-2-0.6-3.6-1.1-3.4-1c-0.1,0.2,1.5,0.8,0.1,0.7c0.7,0.1,1.6,0.2,2.5,0.4c0.9,0.1,1.9,0.3,2.7,0.5
							c0.1,0,0.1,0.1,0.2,0.1l-0.2,0c0.4,0.1,0.7,0.2,1,0.2c0.5,0.1,0.8,0.2,1.3,0.3c0.2,0.2,1.9,0.5,2.7,0.6c0-0.3,1.1-0.1,0.1-0.5
							c0.1,0-0.2,0-0.7-0.1c-0.1,0-0.3,0-0.4,0c0,0,0,0,0.1,0c-0.5-0.1-1.2-0.2-2-0.4c0.7,0,1.4,0,2.2,0.3c0.5-0.1,0.9-0.2,1.2-0.3
							c1.1,0.6,3.2,1.1,3.5,1.3c1.3,0.1,2.8,0.2,4.2,0.2c0.7,0,1.4,0,1.9-0.1c0.6-0.1,1.1-0.2,1.5-0.3c0.7-0.1,0.8,0.2,1.1,0.2
							c-0.4,0.1-0.9,0-1.1,0.1c1.5-0.1,4.3-0.1,4.6-0.5c1.8,0.1-1,0.4,1.5,0.2l-0.3,0.1c1.2,0,2.4-0.1,3.4-0.2
							c1.1-0.2,2.1-0.5,3.1-0.7c2-0.6,4-1.2,6.8-1.5c-0.4,0-0.6,0.1-0.7,0c1.5-0.3,3-0.7,4.6-1.2c1.5-0.5,3-1,4.5-1.7
							c3-1.2,5.8-2.6,8.6-3.8c1.6-0.8,1.6-1.1,2.4-1.8l0.5,0.1c0.5-0.4,0.9-0.9,1.3-1.3c0.5-0.4,1-0.7,1.5-1c0.5-0.3,1-0.6,1.6-0.9
							c0.5-0.3,1.1-0.6,1.6-1c0.5-0.4,1.1-0.9,1.7-1.5l-0.5,0.1c0.5-0.4,1.2-0.9,1.7-1.4c0.6-0.5,1-0.9,1-0.7
							c0.1-0.1,0.1-0.4,0.6-0.6l0.1,0.1c0.7-0.7,1.3-1.4,1.9-2.2c1.7-1.5,0.2,0.7,2.5-1.6c0.8-0.9,2-2.9,1.6-2.6
							c-0.3,0.4-0.9,0.9-1.1,0.8l0.7-0.9c-0.2-0.5,0-1.4-2.1,0.4l-1,1.6l-0.6,0.3c0.4-0.4,0.7-0.8,1.1-1.1c-0.7,0.5-1,1-1.4,1.6
							c-0.2,0-0.4,0.1-0.7,0.4l-1,1.6c-0.3,0,0.4-0.8-0.6-0.1c-0.5,0.7,0.9-0.2-0.1,0.8c-0.8,0.4-0.7,0.1-1.4,1
							c-0.2,0-0.1-0.2,0.2-0.5c-0.6,0.7-1.8,1.6-2,2.1c-0.4,0.2-1,0.7-1.6,1.1c-0.5,0.4-1,0.7-1.1,0.5c-0.2,0.3-1.1,1.2-1.8,1.8
							c1-1.3-2.7,1.7-2.6,1c-0.3,0.5-1.2,1.1-2.2,1.7c-0.5,0.3-1,0.6-1.5,0.9c-0.5,0.3-1,0.6-1.4,0.9c0.1-0.1,0.2-0.3,0.4-0.3
							c-1,0.5-1.4,0.5-2.1,0.8c0,0.4-1.5,1.2-2.3,1.9c-1.4,0.2,0.6-0.8,0-0.9c0.1,0.1-0.4,0.5-0.9,0.8c-0.5,0.3-0.9,0.5-0.7,0.6
							c-1.1,0.2-0.9,0.2-1.5,0.1c0,0.5-0.9,0.5-1.6,1c-1.6,0.3-0.5-0.3-2.1,0.4C95.5,142.2,96.9,141.5,96.9,141.5z M56.9,144
							L56.9,144c0.3,0.1,0.6,0.1,0.8,0.2C57.5,144.2,57.3,144.1,56.9,144z M53.5,143.2c0.4,0.1,0.9,0.3,1.4,0.4
							c0.1,0.1-0.1,0.2-0.4,0.1C54.8,143.7,54,143.4,53.5,143.2z M60.2,146.8c-0.6-0.1-0.7-0.2-0.8-0.2c0.3,0,0.6,0.1,1,0.2
							c0,0,0.1,0,0.1,0C60.4,146.7,60.4,146.8,60.2,146.8z"/>
						<path class="st0" d="M61.3,146.6c0.1,0,0.1,0,0.2,0c-0.1,0-0.2-0.1-0.3-0.1c-0.1,0-0.1,0-0.2,0
							C61.1,146.6,61.2,146.6,61.3,146.6z"/>
						<path class="st0" d="M145.5,57.2L145.5,57.2C145.4,57.2,145.4,57.3,145.5,57.2C145.4,57.3,145.5,57.3,145.5,57.2z"/>
						<polygon class="st0" points="15.9,116 15.9,116 16.1,116.2 						"/>
						<path class="st0" d="M146.4,76.3c0,0-0.1,0.1-0.1,0.2C146.3,76.5,146.3,76.4,146.4,76.3z"/>
						<path class="st0" d="M145.6,84.4l-0.3,1.1C145.4,85.1,145.5,84.7,145.6,84.4z"/>
						<path class="st0" d="M144.3,90.6c0,0.1,0.1,0.1,0.1,0.1c0,0,0,0,0,0L144.3,90.6z"/>
						<path class="st0" d="M103.4,8.3c-0.1,0-0.2-0.1-0.2-0.1C102.6,8,103,8.1,103.4,8.3z"/>
						<path class="st0" d="M127.6,25.1c-0.2-0.2-0.5-0.4-0.7-0.6C127.2,24.8,127.5,25.2,127.6,25.1z"/>
						<path class="st0" d="M71.2,2.4L71.2,2.4c-0.1,0-0.1,0-0.2,0L71.2,2.4z"/>
						<path class="st0" d="M125.9,23.4c0.3,0.4,0.7,0.7,1,1C126.6,24.1,126.3,23.7,125.9,23.4z"/>
						<path class="st0" d="M133.1,115.2l-0.2,0.2c0,0,0,0,0,0.1L133.1,115.2z"/>
						<path class="st0" d="M132.9,115.5l-0.2,0.3C132.8,115.6,132.9,115.5,132.9,115.5z"/>
						<path class="st0" d="M132.4,116.4l0.4-0.6C132.6,116,132.4,116.2,132.4,116.4z"/>
						<path class="st0" d="M137.6,108.2l0-0.1C137.5,108.1,137.5,108.1,137.6,108.2z"/>
						<path class="st0" d="M138.7,105.9c-0.3,0.5-0.9,1.2-1.2,2l0,0.1C137.6,107.6,138.6,106.5,138.7,105.9z"/>
						<path class="st0" d="M143.9,96.6c-0.2,0.7-0.5,1.3-0.8,2c0.2-0.3,0.5-0.7,0.2,0.2C144.5,96.3,142.9,99.2,143.9,96.6z"/>
						<path class="st0" d="M145.8,90.2c-0.2,1.1,0.2,0,0.2,0.1C146.1,89.5,146.1,89.3,145.8,90.2z"/>
						<path class="st0" d="M140.8,42.9l0.3,0C140.6,42.1,141,43,140.8,42.9z"/>
						<path class="st0" d="M135.3,35.5c0.1,0.3,0.2,0.5,0.3,0.8l0.4,0.2C135.8,36.2,135.5,35.8,135.3,35.5z"/>
						<polygon class="st0" points="133.7,30 134,30.3 133,29.1 						"/>
						<path class="st0" d="M61.7,0.9L62,1.2C62.6,1,62.7,0.6,61.7,0.9z"/>
						<path class="st0" d="M29.8,14.9c-0.4,0.1-1.2,0.6-1.6,1.1C28.8,15.6,29.5,15.2,29.8,14.9z"/>
						<path class="st0" d="M8.9,109.5L8.5,109c0.2,0.4,0.5,0.8,0.7,1.1C9.1,109.9,9,109.7,8.9,109.5z"/>
					</g>
				</g>
			</g>
		</g>
	</g>
	<g>
		<g>
			<path class="st0" d="M19.4,70.7c-0.2,0-0.4,0.1-0.5,0.3c-0.1,0.1-2.2,3.3-1.8,6.6c-0.2-0.1-0.4-0.3-0.5-0.5
				c-0.1-0.2-0.4-0.3-0.6-0.2c-0.2,0.1-0.4,0.3-0.4,0.5c0,0.1,0,2.9,1,4.7c-0.6,0-1.1-0.3-1.5-0.7c-0.2-0.2-0.5-0.3-0.7-0.1
				c-0.2,0.1-0.4,0.4-0.3,0.7c0.4,1.5,1.1,2.8,2.1,4c-0.4,0-0.8-0.1-1.1-0.3c-0.2-0.2-0.5-0.2-0.7,0c-0.2,0.1-0.3,0.4-0.2,0.7
				c0.4,1.2,1.1,2.3,1.9,3.3l-1.2-0.3c-0.2,0-0.4,0-0.6,0.2c-0.1,0.2-0.2,0.4-0.1,0.6c0.1,0.2,2.1,5.2,6.2,6.8
				c1.3,0.5,2.8,0.6,4.2,0.3c1.3,4.7,3.9,6.2,4,6.2c0.3,0.2,0.6,0.1,0.8-0.2l0-0.1c0.1-0.3,0-0.6-0.2-0.7c0,0-2.3-1.4-3.4-5.5
				c0.4-0.1,0.8-0.3,1.2-0.5c1.6-1,2.8-2.5,3.6-4.2c0.9-2.2,1.1-4.6,0.5-6.9c0-0.2-0.2-0.4-0.3-0.4c-0.2-0.1-0.4-0.1-0.5,0.1
				l-0.5,0.3c0.4-1.7,0.8-4.3-0.4-5.9c-0.1-0.1-0.3-0.2-0.4-0.2c-0.2,0-0.3,0.1-0.5,0.2l-0.6,0.7c-0.1-1.4-0.6-3-2.3-3.8
				c-0.2-0.1-0.3-0.1-0.5,0c-0.2,0.1-0.3,0.2-0.3,0.4l0,0.1c-0.5-0.8-1.3-1.8-2.3-2.1c-0.7-0.2-1.8-2.1-2.3-3.4l0,0
				C19.8,70.9,19.6,70.7,19.4,70.7L19.4,70.7z"/>
		</g>
	</g>
	<g>
		<g>
			<path class="st0" d="M127.7,75.2c0.2,0,0.4-0.1,0.5-0.3c0.1-0.1,2.1-3.4,1.5-6.6c0.2,0.1,0.4,0.3,0.5,0.4
				c0.2,0.2,0.4,0.3,0.6,0.2c0.2-0.1,0.4-0.3,0.4-0.6c0-0.1-0.1-2.9-1.2-4.6c0.6,0,1.1,0.2,1.5,0.6c0.2,0.2,0.5,0.3,0.7,0.1
				c0.2-0.1,0.4-0.4,0.3-0.7c-0.5-1.5-1.2-2.8-2.3-3.9c0.4,0,0.8,0.1,1.1,0.3c0.2,0.2,0.5,0.2,0.7,0c0.2-0.2,0.3-0.4,0.2-0.7
				c-0.5-1.2-1.1-2.3-2-3.3l1.2,0.2c0.2,0,0.4,0,0.6-0.2s0.2-0.4,0.1-0.6c-0.1-0.2-2.2-5.1-6.4-6.6c-1.3-0.5-2.8-0.5-4.2-0.1
				c-1.5-4.6-4.1-6-4.2-6.1c-0.3-0.1-0.6,0-0.8,0.2l0,0.1c-0.1,0.3,0,0.6,0.3,0.7c0,0,2.3,1.3,3.6,5.4c-0.4,0.2-0.8,0.3-1.2,0.5
				c-1.5,1.1-2.7,2.6-3.4,4.3c-0.9,2.2-1,4.7-0.3,7c0,0.2,0.2,0.3,0.4,0.4c0.2,0.1,0.4,0,0.5-0.1l0.5-0.3c-0.4,1.7-0.7,4.3,0.6,5.9
				c0.1,0.1,0.3,0.2,0.4,0.2c0.2,0,0.3-0.1,0.4-0.2l0.6-0.7c0.1,1.4,0.7,3,2.4,3.7c0.2,0.1,0.3,0.1,0.5,0c0.2-0.1,0.3-0.2,0.3-0.4
				l0-0.1c0.6,0.8,1.4,1.8,2.3,2c0.7,0.1,1.9,2,2.4,3.3l0,0C127.3,75.1,127.5,75.2,127.7,75.2L127.7,75.2z"/>
		</g>
	</g>
	<g>
		<path class="st0" d="M27,35.7l-3.2,4.4l1.4,2.5l-0.4,0.6l-5-9.1l0.4-0.6l10.1,2.1l-0.4,0.6L27,35.7z M26.4,35.5l-5.8-1.2l2.9,5.2
			L26.4,35.5z"/>
		<path class="st0" d="M36.5,28.5c-0.9-0.2-1.8-0.8-2.6-1.8l-3.2-4.3l0.5-0.4l3.2,4.3c0.7,0.9,1.4,1.5,2.2,1.6s1.6-0.1,2.4-0.7
			c0.8-0.6,1.2-1.3,1.3-2.1c0.1-0.8-0.2-1.6-0.9-2.6l-3.2-4.3l0.5-0.4l3.2,4.3c0.8,1.1,1.1,2.1,1,3c-0.1,1-0.7,1.8-1.6,2.5
			C38.4,28.4,37.4,28.7,36.5,28.5z"/>
		<path class="st0" d="M57.4,18.4l-3.2-2.2c-0.3,0.2-0.6,0.3-0.8,0.4l-2.5,0.9l1.1,2.9l-0.6,0.2L48,11.8l3.2-1.2
			c1.1-0.4,2.1-0.5,2.9-0.2c0.8,0.3,1.4,0.9,1.7,1.8c0.3,0.7,0.3,1.4,0.1,2c-0.2,0.6-0.6,1.1-1.2,1.6l3.3,2.3L57.4,18.4z M53.1,16
			c0.9-0.3,1.6-0.8,1.9-1.4c0.3-0.6,0.4-1.3,0.1-2c-0.3-0.8-0.7-1.3-1.4-1.5c-0.6-0.2-1.4-0.2-2.4,0.2l-2.5,0.9l1.7,4.8L53.1,16z"/>
		<path class="st0" d="M72.9,13.3l-5.4,0.3l-1,2.7l-0.7,0l3.7-9.7l0.7,0l4.9,9.1l-0.7,0L72.9,13.3z M72.6,12.8l-2.8-5.3l-2.1,5.6
			L72.6,12.8z"/>
	</g>
	<g>
		<path class="st0" d="M80,139.3l-5.5,0.3l-1.1,2.7l-0.7,0l3.9-9.6l0.7,0l4.8,9.2l-0.7,0L80,139.3z M79.7,138.8l-2.7-5.3l-2.2,5.5
			L79.7,138.8z"/>
		<path class="st0" d="M93,138.5c-0.8-0.4-1.5-1.3-1.9-2.5l-1.7-5.1l0.6-0.2l1.7,5.1c0.4,1.1,0.9,1.8,1.6,2.2
			c0.7,0.4,1.5,0.4,2.5,0.1c0.9-0.3,1.6-0.8,1.9-1.5c0.3-0.7,0.3-1.6-0.1-2.7l-1.7-5.1l0.6-0.2l1.7,5.1c0.4,1.3,0.4,2.3,0,3.2
			c-0.4,0.9-1.2,1.5-2.3,1.9C94.8,139,93.8,139,93,138.5z"/>
		<path class="st0" d="M115.8,128l-3.6-1.3c-0.2,0.2-0.5,0.4-0.7,0.6l-2.2,1.5l1.8,2.5l-0.6,0.4l-5.4-7.7l2.8-1.9
			c1-0.7,1.9-1,2.8-0.9c0.9,0.1,1.6,0.5,2.2,1.3c0.4,0.6,0.6,1.2,0.6,1.9c0,0.6-0.3,1.2-0.7,1.8l3.8,1.4L115.8,128z M111.1,126.8
			c0.8-0.6,1.3-1.2,1.5-1.9c0.2-0.7,0-1.3-0.4-2c-0.5-0.7-1-1-1.7-1.1c-0.7-0.1-1.4,0.2-2.3,0.8l-2.2,1.5l2.9,4.2L111.1,126.8z"/>
		<path class="st0" d="M126.4,113.5l-3.5,4.2l1.3,2.6l-0.5,0.6l-4.5-9.3l0.4-0.5l10,2.6l-0.5,0.6L126.4,113.5z M125.8,113.3
			l-5.8-1.5l2.6,5.4L125.8,113.3z"/>
	</g>
</g>
</svg>
