<?xml version="1.0" encoding="utf-8"?>
<!-- Generator: Adobe Illustrator 26.0.1, SVG Export Plug-In . SVG Version: 6.00 Build 0)  -->
<svg version="1.1" id="Layer_1" xmlns="http://www.w3.org/2000/svg" xmlns:xlink="http://www.w3.org/1999/xlink" x="0px" y="0px"
	 viewBox="0 0 180.1 138.6" style="enable-background:new 0 0 180.1 138.6;" xml:space="preserve">
<style type="text/css">
	.st0{fill:#FFFFFF;}
</style>
<g>
	<path class="st0" d="M148.9,91.6c-4.1,6.2,0.5,12.1,7.4,9.5c4.4-1.9,6.7-6.2,8.7-10.5c1.2-2.6,2.4-5.1,1.9-7.6
		c-0.4-3.2-2.5-3.6-5.2-2.4C156.8,83.1,152.1,87,148.9,91.6L148.9,91.6z M148.7,91.5c3.6-4.6,7.3-9.2,12.4-12.2
		c4.3-2.3,7.4-0.2,7.9,4.5c0.3,2.7-0.8,5.4-1.8,7.8c-1.1,2.7-2.3,5.5-4.1,8c-2.6,3.9-8.4,6.6-13,4.1
		C145.1,101,145.7,95.5,148.7,91.5L148.7,91.5z"/>
</g>
<g>
	<path class="st0" d="M106.9,72.6c-3.1,4.9-8.8,5.5-10.3-0.9c-1.1-7.4,2.9-14.6,8-19.7c2.9-3.2,7.6-1.5,7.7,3.3
		c0.2,4.2-1.3,8-2.8,11.8C108.6,69,107.9,70.9,106.9,72.6L106.9,72.6z M106.6,72.5c2.1-3.3,3-7.4,3.6-11.2c0.3-1.9,0.5-3.9,0.3-5.7
		c-0.2-2.9-2.6-4.2-4.4-1.9c-4.3,4.8-6.8,11.4-6.9,17.7C99.5,76.7,104.1,75.8,106.6,72.5L106.6,72.5z"/>
</g>
<g>
	<path class="st0" d="M109.1,48c2.2-1,5,1.1,5.5,3.4c0,0-2.6-0.5-2.6-0.5c1.4-2.9,3.8-5.3,5.6-8c0,0,0.8,1.6,0.8,1.6
		C115,44.1,111.5,45.6,109.1,48L109.1,48z M108.9,48.2c0.7-1.9,2.5-3.2,4.2-4.3c2.1-1.3,4.8-1.5,7.3-1.4c0,0-0.9,1.6-0.9,1.6
		c-1.7,2.8-2.9,5.9-5,8.4c0,0-2.4,2.9-2.4,2.9l-0.2-3.4C111.8,50.3,110.4,48.8,108.9,48.2L108.9,48.2z"/>
</g>
<g>
	<path class="st0" d="M138.5,103.7c-1.5-3.6-2.1-7.5-3.4-11.1c-2.5-7.1-9.7-12.1-17.2-12c-3.8-0.1-7.2,1.3-10.8,2.6
		c-2.8,1-6,1.8-9.1,1.6c-3.5-0.2-7.3-1.4-10,1.1c-3.2,3.1-3.4,8.1-2.9,12.3c1.4,11.2,8.6,21.5,18.4,27c13.4,7.5,31,5.6,42.9-4
		c1.4-1.2,2.9-2.7,3-4.5c0.1-1.9-1.4-3.5-2.8-4.6C143.8,109.3,140.1,107.4,138.5,103.7L138.5,103.7z M138.8,103.6
		c1.5,3.6,5.2,5.6,8.1,8.1c1.5,1.2,3.1,2.8,3.1,4.9c-0.1,2.1-1.6,3.7-3.1,5c-8.9,7.8-21.4,11.3-33.1,9.1
		c-32.5-5.1-42.4-52.8-18.4-49.4c8,1.8,14.7-4,22.6-3.2c8.2,0.5,15.6,6.5,17.8,14.3C136.9,96.1,137.4,100,138.8,103.6L138.8,103.6z"
		/>
</g>
<g>
	<path class="st0" d="M137.4,77c1,3.3,5.3,4.9,7.6,2.3c2.4-2.4,3.7-5.5,5.2-8.5c1-2.1,1.8-4.3,2-6.4c0.2-2.4-0.9-3.1-3.2-2.8
		c-2.3,0.3-4.1,1.6-5.8,3.1C140.2,67.9,136.5,72.2,137.4,77L137.4,77z M137.1,77c-0.7-4.9,2-9.7,5.1-13.3c2.6-3.2,10.2-6.9,12.2-1.3
		c1.3,5.4-3.2,16.1-7.9,18.9C142.8,83.8,138,81,137.1,77L137.1,77z"/>
</g>
<g>
	<path class="st0" d="M155.5,59.6c-0.1,0-0.2-0.1-0.3-0.3c-0.4-0.4-1-0.7-1.5-0.8c-0.5-0.1-1-0.1-1.4,0l-3.5,1c1.3-1.8,3-4.8,4.8-6
		c1.4-1.1,2.8-2.5,4.1-3.7c0,0,0.4,1.7,0.4,1.7C158.8,54.4,157.9,57.9,155.5,59.6L155.5,59.6z M155.6,59.3c0-0.1,0-0.2,0-0.2l0,0
		c1.2-2.1,1.4-4.8,0.5-7c0,0,1.8,0.4,1.8,0.4c-1.6,1.8-2.7,4-4.6,5.5c0,0-1.1-2.4-1.1-2.4c1.8,0.1,3.4,1.3,3.6,3.1
		C155.8,59.2,155.7,59,155.6,59.3L155.6,59.3z"/>
</g>
<g>
	<path class="st0" d="M117.7,63.3c-2.6,3.9-1.6,6.7,3.3,6.5c3.3,0.1,6.9,0.2,8.7-2.9c1.1-1.6,2.4-4.8,3.4-6.6
		c0.4-0.9,1.2-2.5,1.6-3.4c1.7-4.1-2.9-4.8-5.7-3.3C124.6,55.7,120.6,59.2,117.7,63.3L117.7,63.3z M117.5,63.1
		c3.8-4.4,8.5-11.7,14.9-12.1c3.7-0.1,5.7,3.2,4.4,6.5c-0.4,1.2-1,2.5-1.4,3.6c-0.9,2.2-1.9,5.1-3,7.2c-2.2,4.4-7.3,5-11.5,3.9
		C115.2,71.3,113.8,67.5,117.5,63.1L117.5,63.1z"/>
</g>
<g>
	<path class="st0" d="M136,48.7c2.1,0.2,4.2,1.3,4.8,3.5c0,0-2.4-0.7-2.4-0.7c1.3-2.6,3.6-4.5,5.4-6.7c0,0,0.7,1.8,0.7,1.8
		c-1.5-0.3-3.2-0.2-4.9,0.2c-1.6,0.4-3.5,0.8-4.7,2.1c0,0-0.1-0.2-0.1-0.2C135.2,48.8,135.6,48.8,136,48.7L136,48.7z M136,49
		c-0.5,0-1,0-1.5,0.1c1.3-1.4,2.8-2.8,4.7-3.6c1.7-0.7,3.6-1.2,5.7-1.1l1.9,0.1c0,0-1.2,1.7-1.2,1.7c-1.7,2.3-2.9,5-5.1,6.9
		c0,0-2.9,2.5-2.9,2.5l0.5-3.2C138.5,51.2,137.6,49.3,136,49L136,49z"/>
</g>
<g>
	<path class="st0" d="M23.3,39.9c1.6,4,0.9,8.5-3.9,9.6c-4.4,0.9-8.4-2.8-9.5-6.5C9,40.4,8.7,38,8.4,35.6c-0.4-1.5-0.3-4.3,0.4-6.1
		c0.7-2,2.7-4.2,5.1-3.2c1.9,0.8,3.2,2.3,4.3,3.9C20.3,33.2,21.9,36.5,23.3,39.9L23.3,39.9z M23,39.9c-1.1-3.4-3.3-6.4-5.6-9.1
		c-1.1-1.2-2.4-2.5-3.9-3c-0.7-0.2-1.2-0.1-1.7,0.4c-1.6,1.8-1.6,4.6-1,6.9c0.7,3.8,1.5,7.7,4.5,10.3C19.9,49,24.8,45.7,23,39.9
		L23,39.9z"/>
</g>
<g>
	<path class="st0" d="M60,33.8c1.2,3,4.6,4.7,5.7,0.6c1.1-4.9,0.7-10.5-1.6-15.1c-0.4-1.1-1.4-1.7-2.4-1.1c-1.6,1.4-1.7,3.9-2.1,6
		C59.3,27.4,59.1,30.7,60,33.8L60,33.8z M59.8,33.9c-0.8-3.2-1.2-6.4-1.3-9.6c0-2.5,0.1-5.5,2.1-7.4c2.1-1.6,4.7-0.3,5.5,1.5
		c2.4,4,3.9,8.9,3.2,13.6C68.7,38.5,62.3,41.2,59.8,33.9L59.8,33.9z"/>
</g>
<g>
	<path class="st0" d="M63.4,14.4c-0.8,0.3-1.4,0.4-2.1,1.1c-1,0.8-1.3,3.4-1.7,4.9c0,0-1.7-3.6-1.7-3.6c-1.2-2.4-1.3-5.1-2.1-7.6
		c0,0-0.4-1.8-0.4-1.8c2.1,0.5,4.3,1.3,5.7,2.8C62.1,11.2,63.2,12.7,63.4,14.4L63.4,14.4z M63.1,14.1C63.1,14.1,63,14,63,14
		c0,0,0,0,0,0c-1.4-2.4-3.8-4-6.4-4.3c0,0,1.2-1.4,1.2-1.4c0.9,2.5,2.3,4.8,2.8,7.4c0,0-2.7-0.2-2.7-0.2c1-1.6,3-2.5,4.8-1.8
		C63.1,13.9,62.9,13.9,63.1,14.1L63.1,14.1z"/>
</g>
<g>
	<path class="st0" d="M9.6,25.5c0-0.3-0.2-0.1,0-0.6c0.6-1.6,2.5-2.4,4.2-2c0,0-1.7,2-1.7,2c-1.4-1.9-1.9-4.3-2.8-6.4
		c0,0,1.8,0.1,1.8,0.1c-1.5,1.8-2,4.3-1.4,6.6c0,0,0,0,0,0C9.6,25.3,9.6,25.4,9.6,25.5L9.6,25.5z M9.6,25.8c-1-1.1-1.2-2.7-1.3-4.2
		c-0.1-1.9,0.8-3.9,1.8-5.6c0.9,1.5,1.9,3.1,2.9,4.5c1.4,1.7,2.2,5.1,3,7.1c0,0-3.1-2-3.1-2c-0.3-0.2-0.8-0.4-1.3-0.4
		c-0.5,0-1.1,0.1-1.6,0.3C9.8,25.7,9.7,25.8,9.6,25.8L9.6,25.8z"/>
</g>
<g>
	<path class="st0" d="M28.4,51.3c1.8-2.5,3-5.5,4.6-8.2c3.3-5.7,10.4-8.9,16.9-7.7c4.8,0.7,8.4,4.5,12.7,6.2
		c1.3,0.5,2.6,0.7,4.2,0.9c3.6,0.3,7.4,2.5,8.2,6.4c1.3,6.8-2.6,13.2-6.8,18.2c-6.4,7.3-16.3,11.5-26,10.5
		c-9.6-0.8-18.6-6.1-23.9-14.1c-0.9-1.3-1.7-2.9-1.4-4.6c0.4-1.7,2-2.5,3.4-3.2C23.2,54.6,26.5,53.8,28.4,51.3L28.4,51.3z
		 M28.7,51.5c-2,2.5-5.3,3.3-8.1,4.7c-1.3,0.6-2.8,1.5-3.1,3c-0.2,1.5,0.6,2.9,1.4,4.1c7.3,9.8,20.6,15,32.5,11.9
		c9.5-2.4,17.5-9.9,20.5-19.3c1.4-4.9,0.6-9.9-5.4-10.2c-3.1-0.3-6.7-1.7-9.3-3.6c-2.5-1.7-4.8-3.5-7.8-4.2
		c-5.7-1.6-12.3,0.7-15.8,5.7C31.9,46.1,30.6,49,28.7,51.5L28.7,51.5z"/>
</g>
<g>
	<path class="st0" d="M35.3,31c-2.2,3.9-7.3,4.2-9.5,0.1c-1.2-2.1-1.7-4.5-2-6.9c-0.2-2.6-0.4-5.4,0.7-8c1.1-2.4,3.8-2.4,5.7-1.2
		c2.3,1.2,3.9,3.8,4.8,6.1C35.9,24.3,36.6,27.9,35.3,31L35.3,31z M35,30.8c2-4.1-1.2-9.9-4-12.9c-5.8-4.6-5.2,1.7-4.3,5.8
		c0.7,2.8,1,6,2.9,8.2C30.7,33.3,34,32.7,35,30.8L35,30.8z"/>
</g>
<g>
	<path class="st0" d="M24.5,13.3c0-0.3-0.2-0.1-0.1-0.5c0.4-1.5,2.1-2.2,3.6-1.9c0,0-1.7,2-1.7,2c-0.6-0.8-1-1.6-1.3-2.6
		c-0.3-0.9-0.7-1.8-1.1-2.7l1.8,0.1c-1.2,1.5-1.7,3.5-1.2,5.4c0,0,0,0,0,0C24.6,13.2,24.5,13.2,24.5,13.3L24.5,13.3z M24.5,13.6
		c-1.6-1.8-1.6-4.8-0.5-7c0,0,0.8-1.5,0.8-1.5l1.1,1.6c1,1.7,2.5,3.1,3.1,4.9c0,0,1.4,4.4,1.4,4.4l-3.1-2.4
		C26.5,13.1,25.3,13.2,24.5,13.6L24.5,13.6z"/>
</g>
<g>
	<path class="st0" d="M53.5,24.2c1.5,3.1,1,6.4-3.1,6.7c-3,0.1-6.5-0.2-8.6-2.7c-1.1-1.4-1.8-4.2-1.8-5.5c0,0-0.4-3.5-0.4-3.5
		c-0.1-0.6-0.3-2.1-0.3-2.6c-0.6-4.2,2.8-6.4,6.3-4.4C49.9,14.9,51.4,19.9,53.5,24.2L53.5,24.2z M53.2,24.3
		c-1.2-3.3-3.3-6.3-5.7-8.7c-0.8-0.8-1.7-1.6-2.6-2c-1.8-0.9-3.7-0.3-3.5,1.9c0.3,1.9,1,4.9,1.3,6.8c0,1.3,1.1,3.5,1.5,4
		c1.4,1.5,4.2,1.9,6.2,2.5C53.6,29.6,54.1,26.7,53.2,24.3L53.2,24.3z"/>
</g>
<g>
	<path class="st0" d="M42,9.4c-1.3-0.1-2.3,1.2-2.1,2.3c0,0,0,3.4,0,3.4l-2.5-3.4c-1.4-1.9-1.7-4.3-2.5-6.5c0,0-0.7-2-0.7-2l2,0.5
		c2.3,0.6,4.5,1.9,5.7,3.8c0.5,0.8,0.9,1.5,1.4,2.2C42.8,9.7,42.4,9.5,42,9.4L42,9.4z M42,9.1c0.3,0.1,0.6,0.2,0.9,0.3l-0.1,0.2
		c-1.7-2.1-4.5-3.3-7.1-3.6c0,0,1.2-1.6,1.2-1.6c0.7,1.6,1.8,3,2.4,4.6c0.2,0.5,0.4,1.1,0.5,1.7l-2.5,0C38.3,9.1,40.3,8.8,42,9.1
		L42,9.1z"/>
</g>
<g>
	<path class="st0" d="M170.5,80.1c1.2-1.2,1.6-3.1,1.7-4.7c0.2-1.6,0.4-3,0.3-4.6l2.3,0.9c-2.8,1.7-5.4,3.7-8.2,5.4
		c0,0-0.4-1.3-0.4-1.3c1.2,0.2,2.2,0.9,2.8,1.8c0.7,0.9,1.1,1.8,1.2,2.9l-0.2-0.1L170.5,80.1L170.5,80.1z M170.7,80.4
		c-0.1,0.1-0.4,0.3-0.5,0.4c0-2.1-2.1-3.5-3.9-3.4c0,0-1.8,0-1.8,0c3.4-3.2,7-6.2,10.4-9.4C176.5,73.9,175.6,76.6,170.7,80.4
		L170.7,80.4z"/>
</g>
</svg>
