<svg id="Layer_1" data-name="Layer 1" xmlns="http://www.w3.org/2000/svg" viewBox="0 0 145.55 145.55"><defs><style>.cls-1{fill:none;stroke-width:3.86px;}.cls-1,.cls-2{stroke:#fff;stroke-miterlimit:10;}.cls-2,.cls-3{fill:#fff;}</style></defs><circle class="cls-1" cx="72.78" cy="72.78" r="70.85"/><path class="cls-2" d="M48.36,114.1a52.14,52.14,0,0,1-9.45-.75,14.44,14.44,0,0,1-7.75-4,10.51,10.51,0,0,1-3.09-7.75,9.16,9.16,0,0,1,.76-3.4,9.85,9.85,0,0,1,2-3.21,3.55,3.55,0,0,1,2.52-1.33A1.11,1.11,0,0,1,34.62,95a7.24,7.24,0,0,1-1.26,2.65,7.74,7.74,0,0,0-1.26,4.16q0,8.43,15.62,8.44a62.13,62.13,0,0,0,17.52-2.52,61.61,61.61,0,0,0,19.53-9.45Q95.1,90.29,96.11,80.59v-.88q0-8.44-7.06-10.21-10.33,5.67-16.5,5.67-5.3,0-5.3-2a.73.73,0,0,1,.13-.5q1-3.78,6.17-5.29,8.7-2.52,14.62-2.14,21.3-14.11,21.29-26.72,0-9.06-12.34-9.07-13.49,0-24.32,10.84a6.91,6.91,0,0,0-1,1.38c-.37.68-.86,1.56-1.44,2.65q-1.14,2.27-4.79,4.16a2.53,2.53,0,0,1-1.51.38c-1.85,0-2.78-.72-2.78-2.15a2.07,2.07,0,0,1,.38-1.26Q75.83,26,96.87,26q17.38,0,17.38,12,0,13.49-21,29Q101,70.76,101,79.83V81q-1.26,15.24-19.9,24.94A70.15,70.15,0,0,1,48.36,114.1Z"/><path class="cls-3" d="M20.3,52.44c1.06-.82,1.54-2.25,2.22-3.08.32-.22.64-.08.85-.09a3.09,3.09,0,0,0,1.34-.34c.39-.2.93-.52.94-.76s0-.13-.22-.53c-.2-.57.44-.82.87-.76A6.15,6.15,0,0,0,29,46.22c.2-.14.81-.7.28-.73a16.3,16.3,0,0,1-1.95-.36.92.92,0,0,1-.5-.35.66.66,0,0,1-.1-.32c0-.72.66-1,1.12-1.05a4.29,4.29,0,0,1,3.26.52l.05,0a.58.58,0,0,0-.27-.1h0a7,7,0,0,0,1.85-.58.44.44,0,0,0-.15.23c.2-1,1.51-1.86,2.1-2.35a.37.37,0,0,0-.06.36c0,.09-.07-.08-.22-.16a1.93,1.93,0,0,0-.45-.21h.09a.73.73,0,0,0,.13,0l-.58.15c-.48.11-1.66.42-2.12.52a2.52,2.52,0,0,1-1,.24,1,1,0,0,1-1-1.26,1.68,1.68,0,0,1,.38-.7,4.77,4.77,0,0,1,.65-.69c.85-.52,1.16-.24,1.87-.42s1.78-.13,2.1-.58a.89.89,0,0,0,.08-.17v0a2,2,0,0,1,.72-1.61l.07,0,0,0a.92.92,0,0,0-.24,1.2l0,0a2.59,2.59,0,0,0-.72-.48.63.63,0,0,0,.35-.07s0,0,0,0a7.18,7.18,0,0,1-.73.51c-.93.58-2.38.17-2.19-1.2A2.3,2.3,0,0,1,33,35.11a3.17,3.17,0,0,1,.78-.4c.24-.16-.08-.51-.13-.93a9.68,9.68,0,0,1-.19-1.48.56.56,0,0,0,.21.25c.18.1.18.07.23.08a9.06,9.06,0,0,1-1,.28,2.2,2.2,0,0,1-1.23-.19l0,0c-.08,0-.12,0-.13.11,0,.25-.17,1.21-.24,1.55a3,3,0,0,1-.36,1,1.27,1.27,0,0,1-2.34-.75c.05-.53.21-1.23.3-1.75l0-.14h0a.59.59,0,0,0,.31.55,2,2,0,0,0-.72,0l.05,0c.07,0,.29-.24.19-.16a13.73,13.73,0,0,1-1.45,1.28c0,.06,0-.17,0-.12s0,0,0,0c.84,1.34,2.07,2.79,1.54,4.52a1.36,1.36,0,0,1-2.6.3,10.12,10.12,0,0,0-.7-2.89.23.23,0,0,0,.06.09,1.86,1.86,0,0,0-.31-.21,4,4,0,0,0-.38-.17.49.49,0,0,0,.39-.24s0,0,0,0l0,.06-.17.31A10.89,10.89,0,0,0,24.26,38c-.07.17,0,.43-.09.27A8.13,8.13,0,0,1,25.6,42c0,1.29-1.46,1.36-1.93.28a1.37,1.37,0,0,0-.81-.79c-.06,0-.23,0-.07-.06,0,0,.08,0,.13-.08a2.37,2.37,0,0,0,.27,3.18c.32.48.81,1,.48,1.65a.61.61,0,0,1-1,0c-.16-.26-.22-.51-.33-.63a.21.21,0,0,0-.08-.06s0,0,0,0a.93.93,0,0,0-.22.68c.31,1,0,2.16.55,3.15-.62-.9-.46-2.08-.84-3.06-.11-.37.09-1.27.63-1.13.38.08.52.61.67.79s.27,0,.23-.16c-.3-.78-1.21-1.28-1.43-2.15a3.06,3.06,0,0,1,.42-2.79.69.69,0,0,1,.3-.21,1.15,1.15,0,0,1,.66.06,2.28,2.28,0,0,1,1.37,1.17c.1.2.25.24.13.19s-.18.11-.18.14a3.16,3.16,0,0,0-.34-1.34c-.3-.61-.75-1.31-1.12-1.91-.4-1,.16-1.88.46-2.74.13-.23.38-.86.51-1.08a1,1,0,0,1,.91-.57,2.81,2.81,0,0,1,1.82.87,8.1,8.1,0,0,1,1,3.15.38.38,0,0,0-.17-.17c-.08-.07-.31,0-.32.1.37-1-.63-2-1.11-2.83A1.76,1.76,0,0,1,26,33.19c.32-.32.57-.44.68-.56a9.18,9.18,0,0,1,1-1c1.06-.51,3.15-.38,3,1.22,0,.36-.17,1-.23,1.36,0,.1-.06.38-.06.47a.59.59,0,0,0-.9-.53.42.42,0,0,0-.14.14c0,.07.06-.18.1-.43a13.18,13.18,0,0,0,.2-1.44,2,2,0,0,1,2.93-1.41,3.68,3.68,0,0,1,1.61-.29c1.35.25,1.1,1.73,1.3,2.59.06.31.12.36.21.73a2.11,2.11,0,0,1-1.51,2.47,4.09,4.09,0,0,0-.56.42.6.6,0,0,0-.28-.75c-.38-.18-.4,0-.18-.14s.47-.36.67-.47c1-.48,2,.32,2.69,1a1.25,1.25,0,0,1,.23.42,1,1,0,0,1-.37,1c-.08.06,0,.23-.07.42-.35,2.18-2.89,2.14-4.58,2.32-.24,0-.38.05-.25,0a4.53,4.53,0,0,0-.38.42c-.06.05-.07.15,0-.07a.66.66,0,0,0-.18-.6.57.57,0,0,0-.42-.19c-.07,0,0,0,.1,0l.37-.12.77-.18,1.89-.42a1.39,1.39,0,0,1,.46-.07c1,.16,2.62,1.24,1.84,2.5a11.46,11.46,0,0,1-1.59,1.26c-.33.25-.37.75-.65,1a5.82,5.82,0,0,1-2.42.83,1.22,1.22,0,0,1-1-.13,3.16,3.16,0,0,0-2.53-.37c-.07,0,0,0,.06-.14a.45.45,0,0,0-.15-.44v0a10.14,10.14,0,0,0,1,.26,3.58,3.58,0,0,1,1.3.37,1.2,1.2,0,0,1,.17,1.71c-1,1.19-2.84,1.24-4.13,1.18,0,0,.05-.16,0-.14a2,2,0,0,0,.15.32c.32.9-.65,1.37-1.3,1.64a3.64,3.64,0,0,1-1.58.28c-.28,0-.5-.12-.62,0a11.53,11.53,0,0,1-2.41,2.8Z"/><path class="cls-3" d="M123.92,94.23c-1.06.83-1.54,2.26-2.22,3.08-.32.23-.64.09-.85.09a3.26,3.26,0,0,0-1.34.35c-.39.19-.93.52-.94.75s0,.14.22.54c.2.57-.44.82-.87.76a6,6,0,0,0-2.66.66c-.19.13-.81.7-.28.73a13.11,13.11,0,0,1,2,.36.89.89,0,0,1,.5.34.71.71,0,0,1,.1.33c0,.72-.66,1-1.12,1a4.25,4.25,0,0,1-3.26-.52l-.05,0a.58.58,0,0,0,.27.09s0,0-.05,0a7,7,0,0,0-1.85.58.43.43,0,0,0,.15-.24c-.2,1.06-1.51,1.86-2.1,2.36a.38.38,0,0,0,.06-.36c0-.09.07.07.22.15a2.59,2.59,0,0,0,.45.22l-.09,0H110l.58-.14c.48-.11,1.66-.42,2.12-.53a2.93,2.93,0,0,1,1-.24,1.08,1.08,0,0,1,.77.32,1,1,0,0,1,.27.94,1.68,1.68,0,0,1-.38.7,4.29,4.29,0,0,1-.65.69c-.85.52-1.16.25-1.87.43s-2,.1-2.17.72a2,2,0,0,1-.79,1.67l0,0a.91.91,0,0,0,.35-1,.67.67,0,0,0-.13-.27,2.83,2.83,0,0,0,.72.48.5.5,0,0,0-.35.07s0,0,0,0a7.18,7.18,0,0,1,.73-.51c.93-.58,2.38-.18,2.19,1.2a2.26,2.26,0,0,1-1.16,1.42,2.86,2.86,0,0,1-.78.4c-.24.16.08.52.13.93a9.8,9.8,0,0,1,.19,1.49.52.52,0,0,0-.21-.26c-.18-.1-.18-.07-.23-.07a9,9,0,0,1,1-.29,2.12,2.12,0,0,1,1.23.2l0,0a.14.14,0,0,0,.14-.11,14.22,14.22,0,0,1,.23-1.55,3.11,3.11,0,0,1,.36-1,1.31,1.31,0,0,1,1.08-.59,1.26,1.26,0,0,1,1.23,1.59c0,.27-.15.89-.2,1.16l-.07.35,0,.14a.58.58,0,0,0-.24-.5s-.09,0-.07,0a1.78,1.78,0,0,0,.72,0l0,0c-.07,0-.29.24-.19.16a13.73,13.73,0,0,1,1.45-1.28c0-.06,0,.17,0,.12s0,0,0,0c-.84-1.34-2.07-2.8-1.54-4.52a1.36,1.36,0,0,1,2.6-.3,10.12,10.12,0,0,0,.7,2.89s-.06-.1-.06-.09a1.86,1.86,0,0,0,.31.21,1.9,1.9,0,0,0,.38.16.55.55,0,0,0-.39.24h0l0-.07.17-.31a10.8,10.8,0,0,0,.83-1.93c.07-.17,0-.44.09-.27a8.13,8.13,0,0,1-1.43-3.75c0-1.29,1.46-1.36,1.93-.28a1.36,1.36,0,0,0,.81.78c.06,0,.23,0,.07.07a.42.42,0,0,0-.13.08l0,0a2.26,2.26,0,0,0,.19-2.62,12,12,0,0,1-.87-1.25,1,1,0,0,1,0-1,.6.6,0,0,1,1,.05c.18.3.24.61.42.69a.93.93,0,0,0,.22-.68l0-.19c-.24-1,0-2-.51-3a4.18,4.18,0,0,1,.52,1.42,5.62,5.62,0,0,0,.32,1.64,1.2,1.2,0,0,1,0,.65c0,.21-.29.6-.59.48-.47-.1-.49-.78-.81-.89-.13,0-.1.13-.09.26.3.78,1.21,1.28,1.43,2.15a3,3,0,0,1-.36,2.7,1,1,0,0,1-.15.18c-.29.26-.73.1-.87.06a2.59,2.59,0,0,1-1.16-.8c-.14-.22-.15-.28-.21-.37s-.23-.24-.15-.2.19-.1.2-.13c0,1.12.87,2.26,1.46,3.24a1.71,1.71,0,0,1,.07,1.21,12,12,0,0,1-.86,2.26c0,.07-.2.39-.24.46-.36.73-1.44.43-1.89.16-1.34-.57-1.54-2.48-1.76-3.71a.51.51,0,0,0,.17.17c.07,0,0,0,.13,0a.29.29,0,0,0,.19-.11s0,0,0,.1c-.27,1,.67,1.92,1.14,2.73a1.75,1.75,0,0,1,.13,2.41c-.32.33-.57.45-.68.57a8.24,8.24,0,0,1-1,.94c-1.06.52-3.15.39-3-1.22,0-.35.17-1,.23-1.36,0-.1.06-.37.06-.47a.59.59,0,0,0,.9.53.44.44,0,0,0,.14-.13c0-.07-.06.18-.1.43a13,13,0,0,0-.2,1.43,2,2,0,0,1-2.93,1.41,3.54,3.54,0,0,1-1.61.3c-1.35-.25-1.1-1.73-1.3-2.6-.06-.3-.12-.36-.21-.72a2.12,2.12,0,0,1,1.51-2.48,3.32,3.32,0,0,0,.56-.41.59.59,0,0,0,.28.74c.38.18.4,0,.18.15s-.47.36-.67.47c-1,.48-2-.32-2.69-1a1.25,1.25,0,0,1-.23-.42,1,1,0,0,1,.37-1c.08-.07,0-.24.07-.43.35-2.18,2.89-2.13,4.58-2.31.24,0,.38-.06.25,0a4.53,4.53,0,0,0,.38-.42c.06,0,.07-.15,0,.06a.67.67,0,0,0,.6.8c.07,0,0,0-.1,0l-.37.11-.77.18-1.89.43a2.21,2.21,0,0,1-.46.07c-1-.16-2.62-1.24-1.84-2.5a12.41,12.41,0,0,1,1.59-1.27c.33-.24.37-.75.65-1a6,6,0,0,1,2.42-.84,1.22,1.22,0,0,1,1,.14,3.2,3.2,0,0,0,2.53.37c.07,0,0,0-.06.13a.47.47,0,0,0,.15.45v0a8,8,0,0,0-1-.26,3.58,3.58,0,0,1-1.3-.37,1.2,1.2,0,0,1-.17-1.71c1-1.19,2.85-1.24,4.13-1.18,0,0,0,.16,0,.14a2,2,0,0,0-.15-.32c-.32-.9.65-1.38,1.3-1.64a3.64,3.64,0,0,1,1.58-.28c.28,0,.5.12.62,0a11.72,11.72,0,0,1,2.41-2.8Z"/></svg>