<svg id="Layer_1" data-name="Layer 1" xmlns="http://www.w3.org/2000/svg" viewBox="0 0 145.55 145.55"><defs><style>.cls-1{fill:none;stroke-width:3.86px;}.cls-1,.cls-2{stroke:#fff;stroke-miterlimit:10;}.cls-2,.cls-3{fill:#fff;}</style></defs><circle class="cls-1" cx="72.78" cy="72.78" r="70.85"/><path class="cls-2" d="M78.9,109.84q-15,0-33.9-5.16v.12q-7.68,4-13.48,4a12.6,12.6,0,0,1-6.3-1.64q-3.64-1.89-3.65-4.92A4.89,4.89,0,0,1,24.21,98a9.37,9.37,0,0,1,5-1.26q2.4,0,15,3.78l.75-.38.63-.38Q89,73.06,101.83,51.38q5.79-9.71,5.79-15.88,0-9.19-12.22-9.19a37.77,37.77,0,0,0-16.75,4.28A52,52,0,0,0,64.41,40.67c-.76.76-1.68,1.79-2.77,3.09s-2.36,2.88-3.79,4.72a1.72,1.72,0,0,1-1.63.88,1.9,1.9,0,0,1-2.15-2.14,1.54,1.54,0,0,1,.51-1.13,56.17,56.17,0,0,1,18-16.63q12-7.18,23.18-7.19,6.81,0,11,3,4.67,3.4,4.66,10,0,8.07-6.17,18.4Q91.88,76.07,50,102q16.26,3.78,28.35,3.78,21.8,0,21.42-8.19l-.12-.75c0-1.6.71-2.4,2.14-2.4,1.26,0,1.89,1,1.89,2.9Q103.72,109.85,78.9,109.84Zm-47.63-5.16A19.73,19.73,0,0,0,38.58,103q-6.44-2.27-8.32-2.27c-2.27,0-3.4.63-3.4,1.89S28.33,104.68,31.27,104.68Z"/><path class="cls-3" d="M40.29,28.46a25,25,0,0,1-5.52,2l.13-.06c.08,0,.14-.23.09-.31s-.07-.1,0-.06l.14.08.34.2a.35.35,0,0,1-.25.64,8.17,8.17,0,0,0-3.42.81s-.05,0,0,0l0,0a.47.47,0,0,0,.09-.12.52.52,0,0,0-.1-.64h0l0,0,.39.26-.5,1c0,.06.18,0,.07.05a18.09,18.09,0,0,0-3.14,2l0-1.14.54.26-.41,1.32a.25.25,0,0,0,.17,0,2,2,0,0,0-.23.16,25.45,25.45,0,0,0-2.93,3.6l-.43-1.27.55.15.28,1.47a13.46,13.46,0,0,0-1.58,4l0,.08a.75.75,0,0,0-.21-.59.89.89,0,0,0-1.24-.1l.48-.21.53-.07a.92.92,0,0,1,.94,1.29,6.73,6.73,0,0,0-.34,3.71l-1.55-.52.33-.3a.94.94,0,0,1,1.55.48l.66,2.87a1,1,0,0,1-1.85.42c.21-2.44,2.11-4.43,3.76-6.09a.93.93,0,0,1,1.54.36l.18.58-1.19-.58a9.28,9.28,0,0,0,2.58-1.75.87.87,0,0,1,1.35.31l.3.69L31.2,43a19,19,0,0,0,3.3-2.6.78.78,0,0,1,1.3.28l.18.53-1.24-.3a11.3,11.3,0,0,0,2.11-2.65.68.68,0,0,1,1.2.06l.23.51-1.17-.06,1.16-1.8a7.24,7.24,0,0,0,.82-1.77.52.52,0,0,1,.9-.29l.36.41-.85.22c.6-2.3,1.32-4.73,1-7.11A9.52,9.52,0,0,0,41,25.85a7.49,7.49,0,0,1-.18,2.54c.54,1.38.13,3.76,0,5.51a17.32,17.32,0,0,1-.35,1.85.49.49,0,0,1-.59.38c-.22,0-.5-.41-.66-.53l.9-.29a13.94,13.94,0,0,1-1.88,4.11.66.66,0,0,1-.9.25c-.24-.12-.4-.58-.53-.8l1.22,0a11.48,11.48,0,0,1-1,1.63c-.75,1-2,2.91-2.7.68l1.29.27a20,20,0,0,1-3.51,3,.86.86,0,0,1-1.23-.34v0l-.33-.68,1.37.29c-.74.58-3.45,3.41-4.27,1.56l-.18-.58L29,45a11,11,0,0,0-3.24,4.84v-.48l-1.85.45-.64-2.88,1.55.48-.33.31c-2.54,1.46-1.67-4.23-1-5.34l.94,1.29-.53.06.47-.21a.94.94,0,0,1-1.49-.39A1.89,1.89,0,0,1,23,42c.56-1.57,1-3.35,2.27-4.55l.27,1.47-.61-.18a.82.82,0,0,1-.42-1.27,22.76,22.76,0,0,1,3.39-3.75A1.7,1.7,0,0,1,29,33.3l-.41,1.32c-.48-.26-1.26-.55-.9-1.25a9.93,9.93,0,0,1,2-1.39c.75-.36,1.57-1,2.45-.82l-.49,1s-.55-.43-.56-.43a.55.55,0,0,1,0-.82,1.06,1.06,0,0,1,.33-.15,7.7,7.7,0,0,1,3.86-.49l-.31.63c-.29-.23-1-.57-.57-1a39.57,39.57,0,0,0,5.78-1.4Z"/><path class="cls-3" d="M112.56,114.74a25.4,25.4,0,0,1,4.92-3.18l-.11.09a.3.3,0,0,0,0,.33c.06.09.1.07,0,.06l-.17-.05-.37-.11a.35.35,0,0,1,.09-.69,8.05,8.05,0,0,0,3.15-1.57l0,0,0,0s0,0-.06.14a.53.53,0,0,0,.24.6h0l-.45-.17.26-1s-.17,0-.07,0a17.83,17.83,0,0,0,2.59-2.69l.31,1.09-.58-.13.09-1.37a.18.18,0,0,0-.16,0l.18-.21a25.16,25.16,0,0,0,2-4.17l.7,1.14-.57,0-.61-1.37a13.79,13.79,0,0,0,.64-4.22v-.08a.81.81,0,0,0,.34.53.9.9,0,0,0,1.23-.19l-.41.31-.5.19A.92.92,0,0,1,124,97a6.57,6.57,0,0,0-.52-3.68l1.63.14-.25.37a.94.94,0,0,1-1.62-.11L121.9,91a1,1,0,0,1,1.7-.83c.36,2.42-1,4.79-2.26,6.78a.92.92,0,0,1-1.58,0l-.31-.52,1.29.29a9.43,9.43,0,0,0-2.11,2.29.86.86,0,0,1-1.2.2,6.13,6.13,0,0,1-.64-.79l1.29.08a19.13,19.13,0,0,0-2.62,3.29.78.78,0,0,1-1.32,0l-.31-.48h1.28a11.77,11.77,0,0,0-1.45,3.06.68.68,0,0,1-1.18.22l-.34-.44,1.16-.22-.72,2a7.32,7.32,0,0,0-.4,1.91.52.52,0,0,1-.81.49l-.44-.31.78-.41c-.06,2.37-.2,4.91.66,7.15a9.72,9.72,0,0,0,.11,2.58,7.38,7.38,0,0,1-.41-2.51c-.84-1.22-1-3.64-1.28-5.36a15.22,15.22,0,0,1-.09-1.89.5.5,0,0,1,.49-.5c.21,0,.57.28.76.37l-.81.49a14,14,0,0,1,.89-4.44.64.64,0,0,1,.81-.44c.27.06.53.46.7.65l-1.19.26c.29-.9,1.4-5.16,2.76-3.55l.33.45-1.32,0a20.15,20.15,0,0,1,2.74-3.67.84.84,0,0,1,1.29.08l.47.59-1.4,0c.58-.73,2.53-4,3.77-2.56,0,0,0,0,0,.06l.32.52h-1.58a10.87,10.87,0,0,0,2-5.46l.11.47,1.69-.85,1.28,2.65-1.61-.11.25-.38c2.13-2,2.6,3.74,2.23,5l-1.22-1,.51-.19-.42.31a.94.94,0,0,1,1.3-.21c.5.37.41.86.4,1.38-.19,1.66-.23,3.5-1.17,5l-.6-1.37.63,0c1.8.28-.2,2.76-.54,3.68-.58.91-1,2.28-2.23,2.56l.09-1.38c.53.14,1.35.24,1.17,1A10,10,0,0,1,122,108.9c-.64.52-1.29,1.37-2.19,1.36l.26-1.05.64.3a.53.53,0,0,1,.15.8,1,1,0,0,1-.28.22,7.79,7.79,0,0,1-3.65,1.37l.16-.69.34.14a.93.93,0,0,1,.46.28.36.36,0,0,1-.14.51,31.36,31.36,0,0,0-5.18,2.6Z"/></svg>